<?xml version="1.0" encoding="UTF-8"?>
<svg id="Lager_2" xmlns="http://www.w3.org/2000/svg" viewBox="0 0 1086 949">
    <defs>
        <style>.cls-1{stroke:#71bbcc;stroke-width:2.46px;}.cls-1,.cls-2,.cls-3,.cls-4,.cls-5,.cls-6,.cls-7,.cls-8,.cls-9,.cls-10,.cls-11,.cls-12,.cls-13,.cls-14,.cls-15,.cls-16,.cls-17,.cls-18,.cls-19,.cls-20,.cls-21,.cls-22{stroke-linecap:round;}.cls-1,.cls-2,.cls-3,.cls-4,.cls-5,.cls-6,.cls-8,.cls-9,.cls-10,.cls-11,.cls-12,.cls-13,.cls-15,.cls-16,.cls-17,.cls-18,.cls-19,.cls-20,.cls-21,.cls-22{stroke-linejoin:round;}.cls-1,.cls-23{fill:#75bfcb;}.cls-2{stroke-width:1.56px;}.cls-2,.cls-3,.cls-4,.cls-5,.cls-6,.cls-7,.cls-8,.cls-10,.cls-11,.cls-13,.cls-14,.cls-16,.cls-17,.cls-18,.cls-19,.cls-21,.cls-22{fill:none;}.cls-2,.cls-5,.cls-24{stroke:#fff;}.cls-25{fill:#000;}.cls-25,.cls-26,.cls-23,.cls-27,.cls-28,.cls-29{stroke-width:0px;}.cls-26,.cls-24{fill:#94ceda;}.cls-3,.cls-7,.cls-10,.cls-11,.cls-14,.cls-15,.cls-19{stroke:#000;}.cls-3,.cls-8,.cls-18{stroke-width:2.15px;}.cls-4{stroke-width:4.36px;}.cls-4,.cls-6,.cls-8,.cls-13{stroke:#75bfcb;}.cls-5{stroke-width:1.9px;}.cls-6,.cls-12,.cls-19,.cls-22{stroke-width:3.22px;}.cls-24{stroke-width:.96px;}.cls-24,.cls-7,.cls-14{stroke-miterlimit:10;}.cls-7,.cls-11{stroke-width:1.93px;}.cls-9,.cls-12,.cls-15,.cls-20,.cls-28{fill:#fff;}.cls-9,.cls-12,.cls-16,.cls-17,.cls-18,.cls-20,.cls-21,.cls-22{stroke:#191919;}.cls-9,.cls-16{stroke-width:3.27px;}.cls-10,.cls-14,.cls-15{stroke-width:2.89px;}.cls-13{stroke-width:1.83px;}.cls-27{fill:#459399;}.cls-17,.cls-20{stroke-width:3.53px;}.cls-21{stroke-dasharray:0
            4.23;stroke-width:7px;}.cls-29{fill:#191919;}</style>
    </defs>
    <rect class="cls-28" x="238" y="101" width="732" height="751" rx="36.39" ry="36.39" />
    <path class="cls-28"
        d="M826.55,556.63c3.38,2.89,5.63,6.91,8.84,4.82,3.21-2.09,28.13-30.54,35.53-39.06,7.39-8.52,24.11-33.44,24.11-33.44,0,0-.16-20.25-2.25-25.08-2.09-4.82-101.75-118.47-101.75-118.47,0,0-5.14-4.98-9.32-5.79-4.18-.8-8.04-1.93-8.04-1.93l2.73-11.57s-14.47-9-18.49-10.29c-4.02-1.29-24.11-7.23-24.11-7.23l-.16-7.56-17.36,2.89-16.24.96.8,3.54s-16.07,5.47-21.54,8.04c-5.47,2.57-22.18,13.5-22.18,13.5l5.95,14.79s-11.41,6.43-14.47,7.07c-3.05.64-9.32,2.41-9.32,2.41,0,0-17.84,32.63-22.02,43.24-4.18,10.61-18.65,38.74-18.65,38.74l-3.54-1.13-6.75-28.13-14.79,1.45-4.98-16.56,1.93-16.4s12.06-19.93,12.7-24.43c.64-4.5-2.57-6.75-2.57-6.75,0,0-10.29,16.56-12.06,17.52-1.77.96-.64-4.5-.64-4.5,0,0,7.39-10.45,4.82-29.1-.85-6.18-8.84-11.09-8.84-11.09,0,0-5.63,25.72-7.07,29.1-1.45,3.38-2.89,5.14-2.89,5.14,0,0,.16-26.52-1.13-30.06-1.29-3.54-5.63-6.27-5.63-6.27,0,0-1.13,39.7-1.93,42.76-.8,3.05-7.07,6.43-7.07,6.43l-1.13-11.9s-5.3,16.07-3.38,20.25c1.93,4.18,6.67,15.07,6.67,15.07l7.15,45.37s-7.07,11.73-7.39,17.84c-.32,6.11-3.05,10.45-1.61,15.43l1.45,4.5,5.63,1.45s4.82,4.02,8.36,20.9c3.54,16.88,3.38,26.04,11.09,29.42,7.72,3.38,8.52,5.3,12.38,4.66,3.86-.64,18-13.02,30.06-28.77,12.06-15.75,20.58-24.76,20.58-24.76,0,0,1.61,42.76.48,45.17s-32.63,66.07-40.51,90.34c-7.88,24.27-25.96,85.28-25.96,85.28l-5.55,21.94s28.93,18.81,38.1,21.46c9.16,2.65,39.7,7.64,39.7,7.64,0,0-1.13-4.98.08-9.08,1.21-4.1,10.61-38.34,19.05-69.93,8.44-31.59,19.29-71.85,20.5-82.7,1.21-10.85,4.1-23.15,6.03-51.36,1.93-28.21,2.17-30.5,2.17-30.5,0,0,17.76,3.42,33.76,4.46,15.99,1.04,32.23-.24,32.23-.24l.96,78.77.32,63.66.96,71.53,3.86,33.92s25.88,0,38.42-4.02c12.54-4.02,35.36-14.31,43.56-18.16,8.2-3.86,27.73-14.95,27.73-14.95l-18.89-85.04s-9.81-39.87-11.09-44.37c-1.29-4.5-22.02-41.31-22.02-41.31l5.79-3.38s5.47,10.93,8.84,13.82ZM809.56,507.96l-1.21-.72.48-.12,4.7-23.27s4.58-10.37,4.58-15.07-3.86-26.04-3.86-26.04l28.21,33.52-3.74,1.69,5.67,2.49-5.55,1.73-29.3,25.8Z" />
    <path class="cls-26"
        d="M716.72,163.58s14.59-38.9,41.79-28.29c17.52,6.83,7.72,26.68,7.72,26.68,0,0,18.53-4.42,27.65,5.14,11.45,12.02,6.75,26.36,6.75,26.36,0,0,20.76-9.96,36.97,3.54,25.72,21.42,4.5,53.37,4.5,53.37,0,0,32.67,21.82,16.72,45.65-13.62,20.35-39.22,1.29-39.22,1.29,0,0-1.05,9.63-11.25,14.47-11.09,5.26-20.9-2.57-20.9-2.57,0,0,1.25,7.96-6.43,11.9-6.8,3.49-8.64,2.27-8.64,2.27l-16.88-9.64-21.54-5.79s-4.05,4.45-11.09,5.3c-8.92,1.09-22.02-3.54-22.02-3.54l-19.13,4.5-18.69,10.75s-29.23,13.76-42.12-8.04c-10.41-17.6,12.22-34.4,12.22-34.4,0,0-43.72-12.86-33.92-58.67,6.93-32.37,52.56-22.02,52.56-22.02,0,0-15.73-25.61.32-36.65,14.95-10.29,27.65,3.21,27.65,3.21,0,0-1.55-20.11,13.82-21.54,15.59-1.45,23.15,16.72,23.15,16.72Z" />
    <path class="cls-28"
        d="M772.54,236.33s-8.36-1.37-14.95-6.83c-6.59-5.47-10.13-9.48-10.13-9.48,0,0-5.95,1.77-14.63-1.45-8.68-3.21-12.7-5.14-11.41-9.16s9.48-2.41,12.06-1.93c2.57.48,7.39,2.57,7.39,2.57,0,0-.8-2.41-.96-4.5-.16-2.09.64-4.18.64-4.18,0,0-7.56,1.45-13.18-1.45s-11.73-14.63-11.73-14.63c0,0-2.73,6.27-6.59,9.48-3.86,3.21-11.57,5.79-11.57,5.79,0,0,.08,1.17-.28,2.97-.36,1.81-1.45,3.38-1.45,3.38,0,0,3.74-1.21,4.58,2.17s-5.55,5.79-10.73,6.87c-5.18,1.09-11.33.12-11.33.12,0,0-3.13,11.57-3.38,17.96-.24,6.39,2.05,21.7,1.09,25.44s-3.38,6.15-3.01,9.4c.36,3.26,7.47,12.66,8.92,16.28,1.45,3.62,5.06,18.33,8.2,19.89,3.13,1.57,57.75-1.69,67.63-12.54,9.89-10.85,12.42-23.99,12.42-23.99,0,0,3.62.36,6.75-.84,3.13-1.21,12.3-9.64,15.19-18.69s1.45-21.58-2.89-21.22c-4.34.36-16.4,16.88-16.4,16.88l-.24-8.32Z" />
    <polygon class="cls-26"
        points="755.14 244.31 754.51 240.42 778.31 236.56 776.78 240.77 755.14 244.31" />
    <path class="cls-7" d="M771.1,259.88s3.35-7.2,7.72-12.22c4.34-4.98,10.45-5.63,10.45-5.63" />
    <path class="cls-7" d="M777.04,257.63s2.17-1.69,2.09-4.02-2.09-3.21-2.09-3.21" />
    <path class="cls-11"
        d="M703.82,244.53s-4.04,6.43-9.04,10.37c-5.67,4.46-11.33,7.11-11.33,7.11,0,0,6.39,4.46,18.08,3.38" />
    <path class="cls-26"
        d="M733.9,268.52c-12.46,0-22.61-10.14-22.61-22.61s10.14-22.61,22.61-22.61,22.61,10.14,22.61,22.61-10.14,22.61-22.61,22.61ZM733.9,227.17c-10.34,0-18.75,8.41-18.75,18.75s8.41,18.75,18.75,18.75,18.75-8.41,18.75-18.75-8.41-18.75-18.75-18.75Z" />
    <path class="cls-14" d="M691.77,274.07s6.75,2.89,12.18,2.53c7.35-.48,12.06-2.29,12.06-2.29" />
    <ellipse class="cls-25" cx="731.56" cy="248.04" rx="6.15" ry="3.8"
        transform="translate(405.02 948.09) rotate(-83.72)" />
    <ellipse class="cls-25" cx="689.01" cy="243.46" rx="3.8" ry="6.15" />
    <path class="cls-7" d="M741.62,246.11s1.1-.66,2.53-1.04,3.26-.48,3.26-.48" />
    <path class="cls-26"
        d="M813.05,741.97s-7.46,42.17-16.48,82.19c-7.99,1.57-19.38,3.13-30.3,2.25-12.35-1-24.01-6.4-31-10.3.22-3,.43-5.86.62-8.56,3.86-54.01-6.75-178.43-8.68-184.21-1.93-5.79-24.11-22.19-24.11-22.19,0,0-12.22,92.59-56.26,210.9-.8,2.15-1.64,4.33-2.51,6.54-11.33,3.41-20.33,7.41-34.33,7.41s-28.47-.34-37-5c6.92-37.79,17.25-84.58,17.25-84.58,0,0,4.1,2.41,13.99,5.07,9.89,2.65,30.06,4.01,30.06,4.01,0,0,.8.33.08-2.57-.72-2.89.96-6.51,8.2-31.83,7.23-25.31,29.01-111.39,32.07-128.59,3.05-17.2,7.47-80.58,7.47-80.58,0,0,13.02,3.14,33.76,4.46,20.74,1.33,32.23-.24,32.23-.24,0,0,.8,203.99,1.17,212.07.36,8.07,4.09,35.92,4.09,35.92,0,0,18.09.13,32.56-2.53,14.46-2.65,27.12-9.64,27.12-9.64Z" />
    <path class="cls-7" d="M741.82,249s1.28.04,2.7.48,3,1.35,3,1.35" />
    <rect class="cls-24" x="658.95" y="233.02" width="16.37" height="4.82"
        transform="translate(-16.89 54.85) rotate(-4.65)" />
    <path class="cls-14"
        d="M678.26,216.8s-2.73,10.61-2.97,17c-.24,6.39,2.05,21.7,1.09,25.44-.96,3.74-3.17,4.58-3.01,9.4.11,3.27,5.34,10.37,8.04,17.12,3.4,8.51,5.95,17.48,9.08,19.05,3.13,1.57,57.75-1.69,67.63-12.54,9.89-10.85,12.42-23.99,12.42-23.99,0,0,3.62.36,6.75-.84,3.13-1.21,12.3-9.64,15.19-18.69,2.89-9.04,1.45-21.58-2.89-21.22-4.34.36-16.4,16.88-16.4,16.88" />
    <path class="cls-24"
        d="M678.57,259.6c-12.33,0-22.36-10.03-22.36-22.36s10.03-22.36,22.36-22.36,22.36,10.03,22.36,22.36-10.03,22.36-22.36,22.36ZM678.57,219.7c-9.67,0-17.54,7.87-17.54,17.54s7.87,17.54,17.54,17.54,17.54-7.87,17.54-17.54-7.87-17.54-17.54-17.54Z" />
    <path class="cls-26"
        d="M675.61,342.67s24.59-10.77,25.56-13.26c.96-2.49.72-10.61.72-10.61,0,0-12.06,2.65-21.22,7.96-9.16,5.3-13.74,9.64-13.74,9.64l8.68,6.27Z" />
    <path class="cls-26"
        d="M711.89,244.48s-2.96-2.78-6.39-3.22c-3.09-.4-6.73,1.26-6.77,1.28l-1.64-3.49c.19-.09,4.65-2.16,8.9-1.61,4.7.61,8.41,4.11,8.56,4.26l-2.67,2.79Z" />
    <polygon class="cls-26"
        points="662.28 233.89 659.95 234.06 659.94 237.94 662.5 237.74 662.28 233.89" />
    <path class="cls-26"
        d="M685.74,337.97s13.86,14.47,30.98,14.35c17.12-.12,28.09-10.01,28.09-10.01,0,0-15.79-7.72-18.33-11.21-2.53-3.5,3.38-23.15,3.38-23.15l3.38-.72s-3.13,17.48-1.69,20.25,20.5,12.9,20.5,12.9c0,0-13.38,17.12-34.84,15.55s-34.36-16.52-34.36-16.52l2.89-1.45Z" />
    <path class="cls-26"
        d="M732.52,316.15s-2.41,9.16-.96,11.33,26.04,17.36,26.04,17.36c0,0,10.37-9.16,6.99-14.23-3.38-5.06-32.07-14.47-32.07-14.47Z" />
    <path class="cls-26"
        d="M847.77,474.12s9.32-4.18,8.04-6.11-12.22,1.61-12.22,1.61c0,0-32.47-35.69-33.11-40.19-.64-4.5-8.07-52.92-7.11-56.78,1.21-4.86,4.22-6.87,4.22-6.87l-19.29-23.15-13.82-3.86,1.29-9.97-16.72,14.47-3.86,7.39-4.34,86.48s6.27-70.09,7.56-78.45c1.29-8.36,12.54-18.33,12.54-18.33,0,0,5.14,1.61,10.93,12.22,5.79,10.61,29.53,108.66,28.61,115.1-1.45,10.13-17.04,35.85-17.04,35.85l2.13-18.89-3.68-5.79-1.63,3.86-.84,21.78s-1.81,1.73-5.73,1.13c-3.13-.48-6.33-2.57-6.33-2.57l3.54,8.04-.16,4.18,10.45-.32,28.61,5.47,4.18-2.57-8.36-9.97,27.65-23.15,4.82.96-.32-8.36s7.72,5.79,9.97,3.54c2.25-2.25-9.97-6.75-9.97-6.75ZM810.32,507.03l.48-6.43,8.52-32.79-4.58-21.46,1.13-1.13,25.48,30.7.8,5.14-31.83,25.96Z" />
    <path class="cls-26"
        d="M801.16,551.32s6.43,2.25,9.64,8.36c3.21,6.11,3.38,18.16,3.38,18.16l2.41,10.45,4.9,17.2,1.21,26.84s5.47-.96,11.9,13.18c6.43,14.15,12.8,46.89,7.39,57.55-11.9,23.47-86.16,49.83-86.16,49.83,0,0,35.69,1.93,69.44-16.07,25.38-13.54,38.66-19.93,38.66-19.93,0,0-23.55-111.24-30.86-131.17-6.61-18.01-22.59-38.26-22.59-38.26l-9.32,3.86Z" />
    <path class="cls-26"
        d="M761.95,403.38c.05,2.96.23,11.69.29,14.56.01.51.44.91.95.9l29.97-.91c.51-.02.91-.45.89-.96l-.57-14.55c-.02-.51-.44-.9-.95-.89l-29.69.91c-.5.02-.9.43-.89.94Z" />
    <polygon class="cls-26"
        points="772.3 578.49 768.44 561.13 774.55 559.84 778.81 578.17 772.3 578.49" />
    <polygon class="cls-26"
        points="803.73 572.46 806.3 558.88 810.8 559.68 808.55 571.41 803.73 572.46" />
    <path class="cls-26" d="M818.6,544.01l11.57-6.03s9,19.93,5.22,23.47-16.8-17.44-16.8-17.44Z" />
    <path class="cls-26"
        d="M667.74,348.46l-27.33,19.05s-3.94,15.51-6.51,33.52c-2.57,18-1.53,75.39.4,98.54,1.93,23.15,7.72,37.94,7.72,37.94,0,0-14.15,7.72-25.72,23.79-11.57,16.07-27.01,44.37-27.01,44.37l39.22-87.61-.48-44.37s-39.06,51.28-48.87,52.73c-9.81,1.45-14.15-3.86-14.15-3.86,0,0,1.77,2.09,10.77-3.7,9-5.79,48.22-72.66,48.22-72.66,0,0-1.29-13.5,0-36.65l14.47-51.44,1.93-3.13,4.58-.72,17.6-8.44,5.14,2.65Z" />
    <path class="cls-26"
        d="M573.54,408.42l6.35,24.43s6.75,5.55,8.2,12.3c1.45,6.75.72,15.19,3.13,15.19s4.58-2.65,5.79-1.93.72,9.64,2.41,10.37,3.38-27.97,3.38-27.97l-4.58-.72-.72-5.3-3.62-1.21-3.62-26.28-16.72,1.13Z" />
    <path class="cls-26"
        d="M546.37,435.5s-15.65,27.79-6.43,35.28c2.57,2.09,13.18-8.76,13.18-8.76l-6.75-26.52Z" />
    <path class="cls-14"
        d="M734.45,301.44s-4.1,23.87-2.89,26.04,10.85,7.47,14.71,9.4c3.86,1.93,11.33,7.96,11.33,7.96" />
    <path class="cls-14" d="M700.69,306.26s2.65,20.98.48,23.15c-2.17,2.17-26.68,12.78-26.68,12.78" />
    <path class="cls-10"
        d="M674.49,369.35s-1.03-13.7-4.66-18.65c-3.54-4.82-6.75-5.95-6.75-5.95l-6.59-13.82s11.46-9.91,24.27-15.27c13.82-5.79,19.93-6.59,19.93-6.59" />
    <path class="cls-10"
        d="M656.48,330.93s18.97,11.25,20.74,14.79c1.77,3.54,5.79,123.7,4.66,153.43-.81,21.53-3.54,58.91-8.36,88.17-4.82,29.26-37.29,144.35-38.26,148.53-.96,4.18-.96,9.64-.96,9.64,0,0-25.08-1.93-38.26-6.43-13.18-4.5-40.83-22.5-40.83-22.5,0,0,22.5-77.8,32.79-107.38,10.29-29.58,39.38-87.45,40.51-91.14s-.48-43.88-.48-44.37c0,0-11.36,12.83-22.67,26.52-9.83,11.91-19.21,24.8-26.2,26.2-7.23,1.45-12.06-3.21-12.06-3.21,0,0-4.66-1.13-7.72-5.3s-7.96-39.46-11.73-43.24c-2.73-2.73-6.59-4.34-6.59-4.34" />
    <path class="cls-11" d="M695.06,320.49s-8.28,2.03-17.36,7.07c-4.08,2.26-10.51,7.98-10.51,7.98" />
    <path class="cls-10"
        d="M733.96,307.95l-.48,1.21s13.37,1.79,22.3,5.55c12.34,5.18,21.1,12.3,21.1,12.3,0,0-17.36,13.26-20.33,20.9-2.97,7.64-7.15,116.54-7.64,142.1-.48,25.56.48,217.97,1.69,230.75,1.21,12.78,3.62,33.27,3.62,33.27,0,0,15.67.96,37.37-3.86,21.7-4.82,72.34-33.27,72.34-33.27,0,0-25.08-116.22-30.86-131.17-5.79-14.95-21.7-39.3-21.7-39.3" />
    <path class="cls-11" d="M735.57,316.95s28.47,8.1,29.54,15.07c.32,2.09-.6,5.18-.6,5.18" />
    <path class="cls-10"
        d="M776.88,327l-3.38,11.49s-4.52,2.78-6.83,5.14c-3.21,3.3-5.95,8.04-5.95,8.04" />
    <path class="cls-10"
        d="M773.51,338.49s11.41.16,17.52,6.91c7.97,8.81,97.25,112.04,100.47,117.19,3.21,5.14,3.54,26.36,3.54,26.36,0,0-12.86,19.93-24.11,33.44-11.25,13.5-35.36,38.9-35.36,38.9" />
    <path class="cls-10"
        d="M809.19,517.4s-2.09-8.52,1.13-10.13c4.65-2.32,12.39,6.64,18,22.02,5.54,15.18,10.06,30.02,7.07,32.15-5.81,4.15-17.68-17.68-17.68-17.68" />
    <path class="cls-10"
        d="M813.86,440.89s8.04,12.06,14.63,19.77c6.59,7.72,14.63,15.59,14.63,15.59,0,0-4.18.96-3.86,1.93s5.47,1.13,5.14,2.25-5.47,1.29-5.47,2.41-30.22,26.04-30.22,26.04c0,0,.32-6.43,3.21-18.49,2.89-12.06,6.43-18.16,5.95-23.95s-4.02-25.56-4.02-25.56Z" />
    <path class="cls-7" d="M796.98,366.46s5.14,16.72,6.75,24.76c1.61,8.04,5.14,32.47,5.14,32.47" />
    <path class="cls-7" d="M780.74,515.31s.32-4.02-1.13-7.56-2.89-6.27-2.89-6.27" />
    <path class="cls-7"
        d="M787.01,513.71s3.54-6.91,3.05-13.5c-.48-6.59-.64-22.18,2.09-21.22,2.73.96,3.54,9.16,3.05,14.63-.48,5.47-2.89,11.57-2.89,11.57" />
    <path class="cls-7" d="M793.08,515.25s2.31-1.17,3.05-2.89c.7-1.63.8-3.7.8-3.7" />
    <path class="cls-10"
        d="M822.64,516.82s-2.11,3.07-3.92,2.95c-1.81-.12-30.5-5.79-32.67-5.3s-21.94,6.15-21.94,6.15c0,0,.96,2.65,4.34,3.13,3.38.48,14.23-1.93,16.52-1.69s13.38,3.13,13.38,3.13l.12,1.33s-8.08-1.45-11.81-.96c-3.74.48-24.11,5.18-24.11,5.18,0,0,2.65,8.08,5.43,8.8,2.77.72,19.29-.24,21.94,0s7.6,2.17,7.6,2.17c0,0-2.35,2.35-5,3.19-2.65.84-19.11,1.99-19.83,5.24-.15.69-.24,1.81-.24,1.81,0,0,21.22,1.09,25.08,0,3.86-1.09,6.51-2.77,9.4-4.1,2.89-1.33,24.11-10.49,24.11-10.49,0,0-2.73-8.6-3.98-11.33-1.01-2.22-4.4-9.22-4.4-9.22Z" />
    <path class="cls-7"
        d="M766.27,576.56s.64,19.13,2.57,20.42c1.93,1.29,12.54-.32,25.88-2.89,13.34-2.57,20.9-4.98,20.9-4.98" />
    <path class="cls-7"
        d="M770.45,578.33s2.09.8,5.95.32c3.86-.48,35.04-8.2,36.65-7.23s1.13,6.43,1.13,6.43" />
    <path class="cls-7" d="M818.36,596.17s2.09,8.68,3.05,16.4c.96,7.72.8,15.11.8,15.11" />
    <path class="cls-7" d="M819.32,634.27s-1.29,2.57-3.05,4.02c-1.77,1.45-28.93,9.64-28.93,9.64" />
    <line class="cls-7" x1="767.72" y1="602.12" x2="772.86" y2="605.33" />
    <line class="cls-7" x1="768.2" y1="605.65" x2="773.35" y2="608.87" />
    <line class="cls-7" x1="768.93" y1="609.23" x2="772.72" y2="611.46" />
    <polyline class="cls-7" points="779.66 577.88 781.34 561.85 790.02 562.69 788.58 575.71" />
    <path class="cls-10"
        d="M661.95,344.6s-2.57,2.49-9.4,5.39c-6.83,2.89-9.64,3.54-9.64,3.54l-3.05-.08s-13.9,25.24-21.78,41.96c-5.46,11.58-19.25,39.14-19.25,39.14l.12,4.34s.96.24,2.41,1.85-.32,16.88-.32,17.36" />
    <path class="cls-10"
        d="M596.04,446.19s3.05-9.16,2.41-10.61c-.64-1.45-1.45.96-2.89.32-1.45-.64-6.27-28.29-6.27-28.29,0,0-.96-1.29-8.36-.48-5.58.61-6.59,1.61-6.59,1.61" />
    <path class="cls-10"
        d="M547.5,433.01s-7.23,12.22-8.68,23.31c-1.21,9.25.32,13.5,2.25,13.99,1.93.48,24.11-17.36,33.92-30.54,13.25-17.81,14.31-32.15,14.31-32.15" />
    <path class="cls-7" d="M640.09,368.39s-4.18,12.86-5.63,27.97c-1.45,15.11-2.89,50.15-2.89,50.15" />
    <path class="cls-10"
        d="M537.69,352.19s-1.33.96-1.69,2.29-3.13,14.95-2.29,18.81,6.03,10.25,6.63,14.35,11.94,74.51,11.94,74.51" />
    <path class="cls-28"
        d="M133.47,719.83c4.43,5.39,9.07,10.6,13.93,15.59.22.24.46.48.7.72,9.53,9.79,19.89,18.82,30.92,26.91,18.71,13.82,39.42,25.08,61.6,33.3.04.02.09.04.13.07,12.34,4.58,25.14,8.2,38.31,10.79.28.07.59.13.87.17,15.59,3.03,31.71,4.62,48.19,4.62,27.21,0,53.42-4.32,77.98-12.34,12.3-3.99,24.18-8.92,35.54-14.7-.15-.92-.33-1.85-.52-2.77-3.99-20.82-8.83-41.26-12.67-56.45-1.35-5.36-2.57-10.07-3.6-13.91-.13-.52-.28-1.07-.44-1.59,0-.02-.02-.07-.02-.09-1.59-5.95-2.57-9.4-2.57-9.4l16.92-113.48-16.51-35.96v-.02l-.15-1.09-.98-1.24-25.95-32.38-3.23-1.26-.15-.04-40.32-15.68s-.04-.02-.09-.04l-1.83-.72h-.02l-3.16-1.22-9.38-3.64-2.81-5.12-2.97-5.41-4.32-7.89v-.02l-.39-.68-2.03-3.73-3.53-6.39-6.93-.74-69.8-7.39-9.59,16.96-.87,1.5-13.93,24.62-18.75,7.61-1.4.55-.22.09-1.55.63-13.93,5.65-1.16.48-.59.24-16.27,6.59h-.02s-.04.02-.04.02l-1.2.48-.81.33-3.6,1.48-1.09.44-1.02,2.25-1.29,2.88s-.04.04-.04.09t-.02.04l-2.18,4.78-.7,1.55-.89,1.96s-.02.07-.04.11l-2.81,6.19-.92,8.61v.04l-.07.57v.02l-2.68,25.12-.41,3.97.07,4.47.92,56.63v.02l.13,8.02-4.01,19.97-1.74,8.72c-.02.09-.04.17-.07.26l-2.31,11.43c-.02.09-.04.17-.04.24l-4.71,23.4-.85,4.23Z" />
    <path class="cls-23"
        d="M251.44,499.37s-.49-4.28,1.9-7.39c2.39-3.11,14.96,5.5,33.39-.96,18.43-6.46,22.98-13.8,22.98-13.8l-27.51,5.43-34.1-5.75-4.53,15.09,7.88,7.39Z" />
    <polygon class="cls-23"
        points="246.71 474.48 245.99 486.89 238.78 495.33 237.56 480.12 246.71 474.48" />
    <path class="cls-6" d="M310.8,500.59s-14.36,8.38-33.27,8.86c-18.91.48-33.97-17.46-33.97-17.46" />
    <path class="cls-22" d="M247.33,474.79s1.72,7.64-1.16,13.49c-2.87,5.85-8.62,7.52-8.62,7.52" />
    <path class="cls-23"
        d="M240.75,796.41c12.34,4.58,25.14,8.2,38.31,10.79.28.07.59.13.87.17l.2-3.88,3.69-72.85v-.02l.04-.7v-.04l1.03-20.37c.02-.24.02-.48.04-.72v-.02c.02-.17.02-.35.02-.55,0-.15.02-.31.02-.46l.7-13.67-44.11-2.16-.11,14.87v.5l-.26,33.3v.07l-.37,48.65c0,.15,0,.31-.02.46v2.46l-.04,4.16Z" />
    <line class="cls-19" x1="315.41" y1="476.89" x2="316.48" y2="482.64" />
    <path class="cls-23"
        d="M183.03,512.92s25.46,35.78,24.13,40.08c-1.33,4.31-12.7,22.38-12.04,26.27.66,3.89,46.07,161.41,46.07,161.41l-2.21-28.16s-9.59-52.21-14-69.65c-4.41-17.43-20.28-63.54-20.28-63.54l17.9-25.14-23.99-47.87-15.58,6.59Z" />
    <path class="cls-3" d="M169.83,574.18s-5.74-27.28-6.1-38.41c-.36-11.13,3.05-16.26,3.05-16.26" />
    <path class="cls-22" d="M347.32,495.8s45.45,16.27,48.68,18.79c3.23,2.51,25.85,26.92,28.36,38.41" />
    <path class="cls-19"
        d="M163.36,588.91s-6.17,20.91-14.96,59.18c-.13.5-.22,1-.35,1.5-1.55,6.78-3.16,14.11-4.86,21.96-1.98,9.18-4.06,19.06-6.19,29.63-.02.13-.04.28-.09.44-.5,2.59-1.02,5.23-1.55,7.89-.39,1.98-.76,3.97-1.13,5.95v.02c-.28,1.44-.55,2.83-.81,4.27-.2,1-.37,2.03-.55,3.03" />
    <path class="cls-16"
        d="M245.05,474.8s-2.27.04-4.47,1.57c-1.13.76-2.25,1.96-3.01,3.75-1.79,4.23,3.01,128.19,3.88,226.69v.5c.04,5.89.09,11.69.11,17.38v.83c.04,15.5-.02,30.07-.26,43.04-.13,7.13-.31,14.06-.48,20.76,0,.15,0,.31-.02.46-.02.83-.04,1.64-.07,2.44-.04,1.37-.07,2.75-.11,4.12" />
    <path class="cls-22"
        d="M442.34,784.61c-.17-.92-.35-1.85-.52-2.77-3.66-18.91-8.5-38.88-13.8-58.55-1.02-3.84-2.09-7.68-3.16-11.47-.13-.52-.28-1.07-.44-1.59,0-.02-.02-.07-.02-.09-.78-2.77-1.57-5.52-2.35-8.26-5.45-18.84-11.08-36.85-16.25-52.66-.04-.17-.09-.33-.15-.5s-.11-.33-.17-.5c-1.5-4.64-2.99-9.11-4.4-13.34-.65-1.9-1.26-3.73-1.88-5.52-.44-1.29-.85-2.53-1.26-3.75-1.53-4.47-2.97-8.59-4.27-12.32-.31-.94-.63-1.81-.94-2.68v-.02h-.02c-.15-.5-.33-.98-.5-1.44-.87-2.49-1.66-4.75-2.4-6.78-.07-.17-.13-.39-.2-.59-1.57-4.38-2.77-7.63-3.47-9.53-.48-1.24-.72-1.92-.72-1.92" />
    <path class="cls-22"
        d="M279.06,807.2c.07-1.29.13-2.57.2-3.88,1.33-22.87,2.75-47.08,4.19-70.8,0-.02,0-.07.02-.09v-.15l.02-.26c.46-7.59.94-15.09,1.4-22.5.02-.24.02-.48.04-.72v-.02c.02-.17.02-.35.02-.55,0-.15.02-.31.02-.46,2.59-41.41,5.12-79.18,7.11-102.94,1.05-12.56,2.46-24.42,4.14-35.5v-.02c.02-.22.07-.41.09-.61v-.04c.89-5.87,1.83-11.49,2.83-16.88.94-5.08,1.92-9.94,2.92-14.59v-.02c1.96-9.2,4.03-17.58,6.02-24.99.09-.33.17-.63.26-.96v-.02c.04-.07.07-.15.09-.24.72-2.64,1.42-5.15,2.12-7.5.31-1.07.61-2.12.92-3.12v-.02c5.43-18.01,9.73-28.04,9.73-28.04" />
    <path class="cls-12"
        d="M235.41,470.07s-32.07,22.16-35.42,30.64c-3.35,8.49,24.65,47.74,22.62,53.48-2.03,5.74-16.87,21.66-16.63,25.91s11.34,33.62,20.01,62.64c9.57,32.07,15.59,82.93,15.59,82.93" />
    <path class="cls-9" d="M383.79,577.79s8.22-34.11,8.87-43.09c1.33-18.31,0-21.77,0-21.77" />
    <polygon class="cls-23"
        points="317.02 725.68 325.1 753.16 332.61 752.72 324.81 724.36 317.02 725.68" />
    <path class="cls-23"
        d="M377.81,719.1c.72-.24,12.21,0,12.21,0v17.74s-9.59,4.48-9.59,4.48l-2.62-22.22Z" />
    <path class="cls-16"
        d="M317.02,753.32s1.08,5.74,2.51,12.21c1.44,6.46-1.98,11.85,2.24,12.92,4.22,1.08,27.91-3.59,47.66-9.87,19.74-6.28,33.03-13.46,33.03-13.46v-25.13s-18.31,11.49-39.13,17.59c-20.82,6.1-46.31,5.74-46.31,5.74Z" />
    <path class="cls-23"
        d="M191.64,738.87l4.76-27.55s3.03,1.79,3.31,5.03,5.03-.36,3.73,3.95c-1.3,4.31-3.73,20.39-3.73,20.39l-8.07-1.81Z" />
    <path class="cls-3" d="M147.4,735.42c.28-1.81.55-3.34.7-4.3.13-.72.2-1.13.2-1.13" />
    <path class="cls-16"
        d="M179.02,763.05c1.94.39,3.92.78,5.91,1.18,1.02.2,2.05.39,3.05.59,2.29.44,4.51.85,6.63,1.26.24.02.48.09.72.13,7.17,1.37,12.56,2.35,12.56,2.35,0,0,6.8-21.35,6.11-24.2-.31-1.26-6.61-2.55-14.28-3.66-.76-.13-1.53-.24-2.33-.33-.22-.04-.44-.09-.65-.11-3.6-.5-7.33-.96-10.82-1.4-5.43-.68-10.25-1.26-12.87-1.7-8.61-1.44-17.92-3.27-17.92-3.27" />
    <path class="cls-18" d="M368.06,746.09c-.31-1.86-2.19-11.19-2.19-11.19l6.19-2.15,2.82,10.87" />
    <line class="cls-18" x1="317.52" y1="783.15" x2="325.77" y2="787.01" />
    <line class="cls-18" x1="317.52" y1="788.9" x2="325.77" y2="793.03" />
    <line class="cls-18" x1="317.52" y1="794.64" x2="325.77" y2="799.04" />
    <path class="cls-23"
        d="M354.5,522.89s-25.83,33.37-25.76,37.05c.09,4.67,10.91,17.87,10.41,22.26-.17,1.48-16.04,28.78-28,62.71-13.45,38.13-25.48,80.77-25.48,80.77,0,0,7.34-42.71,19.41-81.19,10.42-33.2,25.81-62.93,25.81-63.18,0-.54-13.46-21.54-13.46-21.54l37.07-36.87Z" />
    <path class="cls-23"
        d="M330.47,590.69h39.8c.43,0,.78.39.78.87v18.75c0,.48-.35.87-.78.87h-39.8c-.43,0-.78-.39-.78-.87v-18.75c0-.48.35-.87.78-.87Z" />
    <path class="cls-12"
        d="M327.79,470.07s32.49,41.64,32.58,45.59-42.99,40.27-42.27,45.09c.72,4.82,12.21,18.46,11.85,22.05-.36,3.59-12.21,24.05-24.41,60.31-12.21,36.26-22.35,90.78-22.35,90.78" />
    <path class="cls-12"
        d="M345.84,391.6s.92-11.49,6.27-11.39c5.35.1,17.66,16.03,10.94,31.44-5.67,13.01-10.14,15.12-10.14,15.12" />
    <path class="cls-12"
        d="M201.3,421.3s-18.81-54.62,40.2-85.33c50.34-26.2,95.15,21.4,96.61,30.38.99,6.1-1.59,12.57,1.46,17.9,3.05,5.32,12.44,9.37,13.26,27.78.58,13.15-4.38,53.46-51.24,69.46-46.86,16-82.97-20.3-82.97-20.3" />
    <path class="cls-12"
        d="M212.02,428.27s-19.61-13.17-27.29-9.01c-7.69,4.16-2.24,39.26,19.97,43.3,12.37,2.25,21.44-3.49,21.44-3.49" />
    <path class="cls-18"
        d="M189.94,428.95c.71-.12,10.38,1.22,18.18,6.68,7.8,5.46,12.77,10.29,12.26,11.64-.51,1.36-3.37,1.64-3.37,1.64" />
    <path class="cls-18" d="M214.79,453.09c-.26-.5-5.93-1.98-7.59-7.49-1.7-5.68.92-9.97.92-9.97" />
    <path class="cls-18" d="M354.33,388.1s-2.65,1.4-3.29,4.9c-.64,3.5.36,10.38.36,10.38" />
    <path class="cls-18" d="M355.3,410.01c.79-.86,2.25-4.97,1.26-8.21-.98-3.23-5.7-5.6-5.7-5.6" />
    <path class="cls-18" d="M239.04,406.49c.67-.35,9.04.84,9.04.84" />
    <line class="cls-18" x1="242.37" y1="414.7" x2="248.98" y2="413.62" />
    <line class="cls-18" x1="328.18" y1="389.11" x2="333.19" y2="385.41" />
    <line class="cls-18" x1="331.99" y1="394.24" x2="335.39" y2="392.63" />
    <path class="cls-12"
        d="M286.6,402.31c.63-.6,9.48-11.75,17.15-11.54,7.67.2,1.64,20.11,1.64,20.11" />
    <path class="cls-18" d="M283.82,411.2s-4.87,2.85-7.2,6.38c-2.33,3.53-3.29,8.1-3.29,8.1" />
    <path class="cls-18" d="M311.48,409.15s4.07,1.5,5.62,3.21c1.94,2.14,3.12,5.01,3.12,5.01" />
    <line class="cls-18" x1="283.8" y1="427.5" x2="284.01" y2="439.33" />
    <path class="cls-18"
        d="M293.08,428.7l.58,12.46s7.78-.44,13.64-3.13c5.87-2.7,7.97-5.6,7.97-5.6,0,0,6.95-4.87,4.3-10.04-2.32-4.53-5.4.1-12.43,2.51-9.42,3.23-30.54.33-32.26,6.02-2.99,9.93,18.06,10.35,18.06,10.35" />
    <line class="cls-18" x1="313.27" y1="423.03" x2="315.82" y2="431.94" />
    <line class="cls-18" x1="303.47" y1="426.23" x2="305.33" y2="437.66" />
    <path class="cls-23"
        d="M237.16,384.65c-2.92-2.47-1.02-12.21,6.67-17.1,7.69-4.89,22.99-4.89,21.63,5.93-.71,5.63-7.71,5.26-12.04,6.93s-13.05,6.94-16.25,4.23Z" />
    <path class="cls-8" d="M268.57,375.89s.59-2.33.34-4.57-1.39-5.2-1.39-5.2" />
    <path class="cls-23"
        d="M327.48,366.7c1.56-2.86-2.96-10.01-10.57-11.52-7.62-1.51-19.77,3.21-15.35,11.38,2.3,4.26,7.75,1.8,11.7,1.79,3.96,0,12.51,1.49,14.22-1.65Z" />
    <path class="cls-13" d="M299.84,369.43s-1.19-1.67-1.68-3.52c-.5-1.85-.5-4.56-.5-4.56" />
    <path class="cls-18" d="M297.38,464.01s8.15,2.95,14.73-.41c7.61-3.88,7.03-7.45,7.03-7.45" />
    <path class="cls-23"
        d="M193.29,392.19s3.85-9.33,10.59-7.58c12.72,3.3,7.09,16.34,7.09,16.34,0,0,13.45.76,9.76,12.26-6.6,20.52-24,5.96-24,5.96,0,0-23.01,1.7-21.45-17.01,1.23-14.71,18.02-9.97,18.02-9.97Z" />
    <path class="cls-23"
        d="M348.2,362.54c.13-.47,9.17-1.92,11.55,6.36,2.6,9.04-2.42,12.19-2.42,12.19,0,0-2.74-2.41-5.29-2.03-6.72,1.01-6.8,10.5-6.8,10.5,0,0-5-4.04-5.42-9.06-.51-6.08.78-7.49-.11-13.87-.36-2.62-4.29-8.38-4.32-8.59s1.59-5.95,5.6-6.11c9.45-.39,7.22,10.58,7.22,10.58Z" />
    <path class="cls-23"
        d="M209.65,399.26l-8.88-12.32c1.19-1.68,28.57-46.85,74.45-53.03,26.09-3.51,35.88,2.54,36.57,3.35,0,0,6.59,3.15,10.42,6.53,5.24,4.62,9.26,9.7,9.26,9.7-.48-.53-21.79-12.7-54.08-7.11-37.46,6.52-67.48,52.52-67.74,52.89Z" />
    <path class="cls-9"
        d="M475.86,602.75c.63,3.43-9.58,92.08-16.55,101.82-15.24,21.3-42.69,15.26-51.27,5.64-14.37-16.11-24.35-79.75-22.38-83.39,1.97-3.64,21.6-35.68,48.33-37.88,26.73-2.21,41.86,13.81,41.86,13.81Z" />
    <path class="cls-9"
        d="M461.11,530.77c.59.28,8.75,9.31,8.57,11.4-.19,2.1-.46,14.12-.74,16.43s-8.77,16.28-8.77,16.28l4.76,46.21s-16.85,17.61-28.56,18.79c-11.7,1.18-16.28,0-16.28,0l30.76-86.89,10.27-22.23Z" />
    <path class="cls-16" d="M475.86,602.75s-11.7,32.52-39.49,37.14c-29.2,4.86-50.53-11.1-50.53-11.1" />
    <path class="cls-20" d="M241.23,665.74s-9.22-11.95-19.35-33.12c-16.42-34.33-3.08-26.6-3.08-26.6" />
    <polygon class="cls-1"
        points="273.09 602.82 288.57 606.09 242.46 552.29 235.15 558.55 273.09 602.82" />
    <path class="cls-20"
        d="M215.15,610.04s38.5-35.26,44.73-37.6c6.22-2.34,29.56,2.32,37.71,5.86,8.15,3.53,18.58,34.04,19.49,37.59.9,3.55-21.9-3.02-28.95-14.47-7.05-11.45-19.62,4.11-19.62,4.11-.68-.12,10.08-2.76,20.22,3.11,9.75,5.65,8.46,5.66,8.67,8.06s-10.63.23-21.72,3.22c-12.45,3.36-15.74,6.5-15.74,6.5l-26.46,13.33" />
    <path class="cls-20"
        d="M163.37,626.05s42.72-43.45,61.24-25.28c12.57,12.34,23.87,61.4,19.55,62.75-4.32,1.35-81.39,66.94-92.79,67.97-11.4,1.03-35.52-29.89-39.04-47.69-3.53-17.8,44-159.82,44-159.82l41.79-21.4" />
    <polygon class="cls-23" points="178.64 612.33 180.51 574.18 163.42 625.44 178.64 612.33" />
    <ellipse class="cls-28" cx="276.69" cy="328.19" rx="22.39" ry="26.67"
        transform="translate(-103.34 128.59) rotate(-22.16)" />
    <ellipse class="cls-4" cx="277.29" cy="327.95" rx="16.76" ry="19.96"
        transform="translate(-103.21 128.8) rotate(-22.16)" />
    <ellipse class="cls-8" cx="278.17" cy="326.07" rx="4.73" ry="5.64"
        transform="translate(-102.44 128.99) rotate(-22.16)" />
    <ellipse class="cls-29" cx="321.85" cy="396.2" rx="5.36" ry="6.73" />
    <ellipse class="cls-29" cx="260.69" cy="409.15" rx="5.43" ry="6.73" />
    <path class="cls-23"
        d="M143.39,729.99s-32.61-31.36-30.92-50.84c1.69-19.49,42.89-156.25,42.89-156.25l43.09-17.73,1.45,16.42-30.07,14.75s-70.7,153.94-40.36,176.48" />
    <path class="cls-23"
        d="M204.06,598.32s-42.69,24.26-50.74,34.75c-8.05,10.49-17.07,34.75-17.07,34.75l67.81-69.5Z" />
    <path class="cls-17"
        d="M163.37,626.05s42.72-43.45,61.24-25.28c12.57,12.34,23.87,61.4,19.55,62.75s-81.39,66.94-92.79,67.97c-11.4,1.03-35.52-29.89-39.04-47.69-3.53-17.8,44-159.82,44-159.82l41.79-21.4" />
    <polygon class="cls-1"
        points="283.89 600.94 274.53 603.83 303.43 638.52 314.09 643.04 310.74 632.26 283.89 600.94" />
    <line class="cls-20" x1="268.5" y1="605.51" x2="255.4" y2="619.91" />
    <path class="cls-27"
        d="M402.73,426.07l88.79-2.88c2.7-.09,4.89,2.14,4.77,4.83l-5.26,117.59c-.11,2.42-2.07,4.35-4.49,4.42l-73.46,2.12c-2.45.07-4.53-1.78-4.75-4.23l-10.07-116.84c-.23-2.64,1.81-4.94,4.46-5.02Z" />
    <path class="cls-9"
        d="M420.92,640.75l7.52-60.76s-3.46-10.72-4.07-12.89c-1.65-5.79,0-14.1,0-14.1,0,0,2.67-5.71,1.38-10.98-1.29-5.27-5.66-13.21-4.68-17.62s4.89-2.35,4.89-2.35c0,0,4.29,6.71,5.69,9.83s2.64,8.35,2.64,8.35l2.35-1.41s-1.01-7.58-.96-14.43c.05-6.85-3.57-15.96-2.23-18.26,1.35-2.3,9.03-4.28,11.27-2.37,2.78,2.37,3.56,9.81,4.09,15.31.53,5.5,2.87,15.73,2.87,15.73,0,0,2.26-7.05,3.06-10.41.8-3.36-.37-12.32,2.23-15.62,2.59-3.3,5.17-3.94,6.49-2.64,2.5,2.46,1.97,17.9,2.33,22.13.66,7.84,0,8.91-.43,14.48-.29,3.68.07,10.26.07,10.26" />
    <path class="cls-5"
        d="M403.15,433.14l.71,9.9c.08,1.1,1,1.96,2.1,1.96h16.29c1.16,0,2.11-.94,2.11-2.11v-10.8c0-1.21-1.01-2.17-2.22-2.1l-17,.9c-1.18.06-2.07,1.08-1.99,2.25Z" />
    <circle class="cls-29" cx="411" cy="437" r="4" />
    <circle class="cls-29" cx="419.5" cy="437.5" r="2.5" />
    <path class="cls-27"
        d="M613.32,278.88l-72.94-2.36c-2.21-.07-4.02,1.76-3.92,3.97l2.54,83.52,11,4c.09,1.99,2.01,5.94,4,6l7.09,7.18,43.73,1.26c2.01.06,3.73-1.47,3.9-3.47l8.27-95.97c.19-2.17-1.49-4.06-3.67-4.13Z" />
    <path class="cls-2"
        d="M557.97,282.68l-.58,8.13c-.06.91-.82,1.61-1.73,1.61h-13.38c-.96,0-1.73-.77-1.73-1.73v-8.87c0-.99.83-1.78,1.82-1.73l13.96.74c.97.05,1.7.89,1.63,1.85Z" />
    <circle class="cls-29" cx="551.52" cy="285.85" r="3.29" />
    <circle class="cls-29" cx="544.54" cy="286.26" r="2.05" />
    <path class="cls-15"
        d="M580.13,430.2l-12.18-38.82s1.93-10.37,2.05-12.66.48-4.46.48-4.46c0,0,6.39-8.32,8.56-13.38,2.17-5.06,4.1-7.6,3.86-12.18-.24-4.58-1.45-5.67-1.45-5.67,0,0-5.91,9.89-7.84,12.78-1.93,2.89-5.43,6.63-5.43,6.63l-.84-2.29s3.98-10.73,5.06-17.6.84-13.5-.12-16.03c-.96-2.53-9.04-10.49-9.04-10.49,0,0-2.53,16.4-3.98,21.82s-5.67,16.4-5.67,16.4c0,0,.24-16.76,0-20.25s.48-10.61-1.57-14.35-5.18-5.43-5.18-5.43c0,0-.24,28.09-.72,32.79-.48,4.7-.12,11.57-2.77,14.23-2.65,2.65-4.1,2.65-4.1,2.65" />
    <line class="cls-21" x1="214.11" y1="472.27" x2="214.11" y2="476.5" />
</svg>