<svg id="Lager_2" xmlns="http://www.w3.org/2000/svg" viewBox="0 0 1200 948">
    <defs>
        <style>
            .cls-2,.cls-3,.cls-5{stroke-width:0}.cls-12,.cls-16{stroke-linecap:round}.cls-12{fill:none}.cls-16{stroke-linejoin:round}.cls-12{stroke:#75bfcb}.cls-17{stroke-width:4.17px}.cls-12,.cls-17{stroke-miterlimit:10}.cls-16,.cls-17{stroke:#191919}.cls-16,.cls-17,.cls-5{fill:#fff}.cls-2{fill:#71bacf}.cls-3{fill:#75bfcb}.cls-16{stroke-width:4.87px}.cls-12{stroke-width:12.5px}</style>
    </defs>
    <path class="cls-5"
        d="m488.1 325.3 9.29 43.01-2.12 32.89L464 414l-3 39 29 69 20 34 33 28 41 24 24 78 51-1 28-10 39-39 4-5-32-74V451l-18-117-7-1-17 15-16.5-39.5-67.31-85.23z" />
    <path class="cls-16"
        d="m615.3 502.79-109.12-11.08c-12.21-1.24-21.11-12.14-19.77-25.3l2.61-25.69m4.01-39.52 20.69-203.72c1.24-12.21 12.14-21.11 24.36-19.87l112.85 11.46c12.21 1.24 21.11 12.14 19.87 24.36l-15.43 134.22" />
    <path class="cls-16"
        d="M494.86 364.68s-38.99-44.95-30.66-60.03c12.91-23.35 38.43 7.42 38.43 7.42l3.32-32.73s-20.5-29.42-17.95-42.95c4.17-22.03 21.5-8.44 21.5-8.44" />
    <path class="cls-2"
        d="M667.88 339.62s-.67 22.72 3.02 25.05 10.98 1.04 10.98 1.04.58-24.26-2.3-31.11c-1.25-2.99-11.7 5.03-11.7 5.03Z" />
    <path transform="rotate(5.8 594.715 187.474)"
        style="fill:none;stroke-linecap:round;stroke-linejoin:round;stroke:#191919;stroke-width:4.2px"
        d="M569.31 185.62h51.16v3.91h-51.16z" />
    <path
        d="M158.24 410.2s-11.93 32.41-7.53 41.09c4.4 8.67 42.29 66.51 49.43 79.93s34.59 57.87 57.29 66.41 35.88 3.93 56.16-8.21c20.29-12.13 41.84-20.24 42.46-35.93 2.48-62.07-197.82-143.28-197.82-143.28Z"
        style="fill:#71bbcd;stroke-miterlimit:10;stroke:#191919;stroke-width:2.72px" />
    <path
        d="m337.18 556.41-28.92 14.72c-26.96 13.72-59.92 5.07-76.68-20.11l-68.37-102.74c-14.37-21.59-6.69-50.87 16.42-62.63l41.3-16.7c18.87-9.6 44.26-4.82 55.99 12.81L353 496.08c13.84 20.79 6.44 49-15.82 60.33Z"
        style="stroke-miterlimit:10;stroke:#191919;fill:#fff;stroke-width:2.72px" />
    <path d="M231.2 510.25s-49.07-69.4-59.48-95.82c-7.14-18.14 7.9-28.78 7.9-28.78"
        style="fill:none;stroke-linecap:round;stroke-linejoin:round;stroke:#191919;stroke-width:2.72px" />
    <path
        d="m337.02 518.95-52.21 24.62a13.02 13.02 0 0 1-16.54-4.78l-71.1-111.56c-4.41-6.91-1.41-16.13 6.23-19.13l52.25-20.51c5.72-2.25 12.24-.19 15.63 4.94l71.06 107.45c4.38 6.62 1.87 15.58-5.31 18.97Z"
        style="stroke-width:0;fill:#71bbcd" />
    <path d="m294.46 576.12 11.87 1.93c7.53.3 14.86-2.49 20.29-7.72l15.77-17.07"
        style="stroke-linecap:round;stroke-linejoin:round;stroke:#191919;stroke-width:2.72px;fill:#191919" />
    <rect class="cls-5" x="289.93" y="507.87" width="35.32" height="14.7" rx="4.4" ry="4.4"
        transform="rotate(-26.3 307.58 515.197)" />
    <path class="cls-5"
        d="m291.63 434.64-15.51 7.08-3.9-5.95 15.51-7.08zm4.69 7.13-15.52 7.08-3.9-5.94 15.51-7.08zm4.68 7.14-15.52 7.08-3.9-5.95 15.52-7.08zm4.68 7.13-15.52 7.08-3.9-5.95 15.52-7.07zm4.68 7.14-15.51 7.07-3.91-5.94 15.52-7.08zm4.68 7.13-15.51 7.08-3.9-5.95 15.51-7.07zm4.68 7.14-15.51 7.07-3.9-5.94 15.51-7.08zm4.68 7.13-15.51 7.08-3.9-5.95 15.51-7.07zm-89.83-49.29-.71.99-.72.99-11.55 4.65-1.39-.14-1.4-.14.72-.99.71-.99 11.55-4.66 1.4.14zm-9.24-15.43-.72.99-.71 1-11.55 4.65-1.4-.14-1.39-.15.71-.99.72-.99 11.55-4.65 1.39.14zm-6.99 21.64-1.19-.73-1.2-.74-6.46-10.79.02-1.23.01-1.23 1.2.74 1.2.74 6.46 10.79-.02 1.23zm16.42-6.61-1.19-.74-1.2-.74-6.46-10.78.02-1.23.01-1.23 1.2.74 1.2.74 6.46 10.78-.02 1.23zm9 15.83-.71.99-.71.99-11.56 4.66-1.39-.14-1.39-.15.71-.99.71-.99 11.56-4.65 1.39.14zm.2-.4-1.2-.74-1.2-.73-6.46-10.79.02-1.23.02-1.23 1.19.74 1.2.74 6.46 10.79-.01 1.23zm12.81-23.97-.71.99-.72.99-11.55 4.65-1.39-.14-1.4-.14.72-.99.71-.99 11.55-4.66 1.4.14zm-9.24-15.43-.71.99-.72 1-11.55 4.65-1.4-.14-1.39-.14.71-1 .72-.99 11.55-4.65 1.4.14zm-6.99 21.65-1.19-.74-1.2-.74-6.46-10.79.02-1.23.01-1.23 1.2.74 1.2.74 6.46 10.79-.02 1.23zm16.42-6.62-1.19-.74-1.2-.74-6.46-10.78.02-1.23.01-1.23 1.2.74 1.2.74 6.46 10.78-.02 1.23zm9 15.83-.71.99-.71.99-11.56 4.66-1.39-.14-1.39-.15.71-.99.71-.99 11.56-4.65 1.39.14zM249.74 448l-1.2-.74-1.2-.74-6.46-10.78.02-1.23.02-1.23 1.19.74 1.2.74 6.46 10.78-.01 1.23zm16.42-6.62-1.2-.73-1.2-.74-6.46-10.79.02-1.23.02-1.23 1.2.74 1.19.74 6.46 10.79-.01 1.23z" />
    <path d="m244.18 479.39 35.28-14.32m-41.74 4.99L273 455.75"
        style="fill:none;stroke-linecap:round;stroke:#fff;stroke-miterlimit:10;stroke-width:4.64px" />
    <path class="cls-5"
        d="m279.64 487.27-.35.48-.34.48-5.58 2.25-.68-.07-.67-.07.34-.48.35-.48 5.58-2.25.67.07zm-4.47-7.45-.34.48-.35.48-5.58 2.25-.67-.07-.68-.07.35-.48.34-.48 5.59-2.25.67.07zm-3.37 10.46-.58-.36-.58-.36-3.12-5.21.01-.59.01-.6.58.36.57.36 3.13 5.21-.01.59zm12.28 4.45-.35.48-.34.48-5.58 2.25-.68-.07-.67-.07.35-.48.34-.48 5.58-2.25.68.07zm-7.84 3-.58-.35-.58-.36-3.12-5.21.01-.6.01-.59.58.36.58.36 3.12 5.21-.01.59zm7.93-3.19-.58-.36-.57-.36-3.13-5.21.01-.59.01-.59.58.35.58.36 3.12 5.21-.01.59zm6.19-11.59-.34.48-.35.48-5.58 2.25-.67-.07-.67-.07.34-.48.35-.48 5.58-2.24.67.06zm-4.46-7.45-.35.48-.34.48-5.58 2.25-.68-.07-.67-.07.35-.48.34-.48 5.58-2.25.68.07zm-3.38 10.46-.57-.36-.58-.36-3.12-5.21v-.59l.01-.59.58.35.58.36 3.12 5.21-.01.59zm12.29 4.45-.35.48-.34.48-5.59 2.25-.67-.07-.67-.07.34-.48.35-.48 5.58-2.25.67.07zm.09-.19-.58-.36-.58-.36-3.12-5.21.01-.59.01-.59.58.35.57.36 3.13 5.21-.01.59zm-30.72 9.94c-17.42-4.33-11.69-13.09-5.33-9.66.99-5.94 11.7-2.84 5.33 9.66" />
    <path class="cls-3"
        d="M936.62 62.14c4.49 3.19 15.11 41.37 1.54 89.25-13.56 47.88-45.66 73.43-45.66 73.43l-24.42 11.33-29.68-7.05c-.23.34 48.91-34.87 64.98-87.83 17.53-57.79-2.43-104.83-2.43-104.83z" />
    <path class="cls-17"
        d="m841.74 31.38 27.06 22.96s22.72-15.12 43.28-6.04c19.28 8.54 29.24 27.69 29.64 28.73-2.24-8.52-9.02-25.31-21.29-36.17-11.47-10.14-15.66-10.74-25.54-14.22-38.26-9.05-53.15 4.73-53.15 4.73Z" />
    <path d="M933.92 58.77s21.59 25.63 3.7 95.61-74.89 84.33-74.89 84.33"
        style="fill:none;stroke-width:4.17px;stroke-miterlimit:10;stroke:#191919" />
    <path class="cls-17"
        d="m792.93 213.82 34.49-8.34s13.49 23.72 35.94 24.86c21.06 1.04 42.06-17.96 42.88-18.71-5.83 6.6-27.12 22.51-33.95 25.38-14.11 5.94-21.94 5.27-32.34 3.94-38.24-9.13-47.03-27.13-47.03-27.13Z" />
    <path class="cls-3"
        d="m796.05 218.69 12.02 3.63c13.23 3.77 27.13-3.96 30.9-17.19 0 0 2.93-33.15 13.38-73.88 9.08-35.35 27.17-68.35 27.17-68.35 3.77-13.23-3.96-27.13-17.19-30.9l-9.21-2.63c-13.23-3.77-22.92 5.99-30.9 17.19-11.43 16.04-19.52 34.65-29.34 70.33-11.36 41.29-11.23 53.9-11.22 71.9 0 13.75 1.98 23.75 14.38 29.9Z" />
    <ellipse cx="806.13" cy="187.16" rx="16.28" ry="13.08"
        transform="rotate(-81.11 806.086 187.184)"
        style="fill:none;stroke-linecap:round;stroke-linejoin:round;stroke-width:4.17px;stroke:#fff" />
    <path class="cls-12" d="M751.26 188.89c-6.9 23.86 6.85 48.79 30.72 55.68" />
    <path class="cls-12" d="M729.13 182.5c-10.29 35.6 10.22 72.78 45.82 83.06" />
    <path class="cls-12"
        d="M751.26 188.89c-6.9 23.86 6.85 48.79 30.72 55.68m52.33 378.36c-24.63 3.23-41.97 25.8-38.74 50.43" />
    <path class="cls-12" d="M831.32 600.09c-36.74 4.81-62.61 38.49-57.79 75.23" />
    <path class="cls-12"
        d="M834.31 622.93c-24.63 3.23-41.97 25.8-38.74 50.43M329.32 386.55c23.67 7.52 36.77 32.79 29.25 56.47" />
    <path class="cls-12" d="M336.29 364.6c35.31 11.21 54.85 48.92 43.63 84.23" />
    <path class="cls-12" d="M329.32 386.55c23.67 7.52 36.77 32.79 29.25 56.47" />
    <path
        d="M702.45 763.13s152.53-83.8 170.37-102.8 82-123.17 104.18-131.37 22.43 14.81 36.71 18.14c14.27 3.34 20.9-10.21 35.93-4.81s9.67 31.13 12.01 33.03 22.7 1.92 26.65 9.01-1.7 24.82.27 28.36c1.98 3.54 23.97 13.68 22.22 28.22s-7.52 15.25-12.98 29.74c-5.46 14.5-14.16 38.97-21.98 46.21s-110.2 32.36-135.01 46.19-172.49 146.24-172.49 146.24-33.64-26.76-49.78-72.89c-14.15-40.44-16.11-73.28-16.11-73.28Z"
        style="stroke-miterlimit:10;stroke:#191919;fill:#fff;stroke-width:5.8px" />
    <path class="cls-3"
        d="M824.3 689.7s2.77-25.83 18.65-32.84 30.36-.65 30.36-.65l-22.33 20.94-4.38-.37-22.31 12.92Zm81.81 103.73s28.91 6.89 41.36-5.2 6.61-36.64 6.61-36.64l-26.51 17.27.43 4.96-21.88 19.61Z" />
    <path
        d="M758.82 892.35c2.36-18.46-47.16-118.59-27.05-126.16 20.1-7.57 59.41 76.73 74.05 78.42s-31.6-92.6-15.58-103.37 45.05 62.27 61.79 58.39 3.79-30.53 3.79-30.53"
        style="stroke-width:6.26px;fill:none;stroke-linecap:round;stroke-linejoin:round;stroke:#75bfcb" />
    <path class="cls-3"
        d="M850.98 677.14s27.87 7.17 48.03 32.67c20.15 25.5 28.83 62.32 28.83 62.32l26.23-20.55s-15.74-45.13-30.85-60.23c-25.21-25.2-49.91-35.15-49.91-35.15" />
    <path class="cls-3"
        d="m947.9 727.51-29.56 25.18c-6.36 5.42-15.97 4.33-20.95-2.38l-33.79-45.46c-5.01-6.73-3.24-16.3 3.85-20.8l31.3-19.88c6.22-3.95 14.42-2.58 19.02 3.18l32.05 40.15c4.86 6.09 4.01 14.94-1.92 19.99Z" />
    <path class="cls-5"
        d="m900.49 693.64-.87-.38-.86-.38-5.35-7.22-.11-.94-.11-.95.87.38.86.38 5.36 7.22.1.95zm7.63 10.34-.87-.38-.87-.37-5.35-7.23-.11-.94-.11-.94.87.38.87.38 5.35 7.22.11.94zm6.17-20.29-.38.87-.38.87-7.22 5.35-.94.1-.94.11.37-.86.38-.87 7.23-5.35.94-.11zm-7.66-10.33-.37.87-.38.86-7.23 5.35-.94.11-.94.11.38-.87.38-.86 7.22-5.36.94-.1zm7.75 10-.87-.38-.87-.38-5.35-7.22-.11-.94-.11-.95.87.38.87.38 5.35 7.22.11.95zm7.53 10.68-.38.86-.38.87-7.22 5.35-.94.11-.94.11.38-.87.37-.87 7.23-5.35.94-.11zm-10.18 7.27-.87-.38-.87-.38-5.35-7.22-.11-.94-.1-.94.86.38.87.37 5.35 7.23.11.94zm6.9 16.9-.38.87-.37.87-7.23 5.35-.94.11-.94.11.38-.87.38-.87 7.22-5.35.94-.11zm-7.65-10.33-.38.87-.38.87-7.22 5.35-.94.11-.94.11.37-.87.38-.87 7.23-5.35.94-.11zm7.74 10-.87-.38-.87-.37-5.35-7.23-.11-.94-.1-.94.86.38.87.38 5.35 7.22.11.94zm7.53 10.68-.37.87-.38.87-7.23 5.35-.94.11-.94.11.38-.87.38-.87 7.22-5.35.94-.11zm-10.18 7.27-.86-.37-.87-.38-5.35-7.23-.11-.94-.11-.94.87.38.87.38 5.35 7.22.11.94zm16.44-27.9-.37.87-.38.87-7.23 5.35-.94.11-.94.11.38-.87.38-.87 7.22-5.35.94-.11zm-7.65-10.33-.38.87-.37.87-7.23 5.35-.94.11-.94.11.38-.87.38-.87 7.22-5.35.94-.11zm-2.52 17.61-.87-.38-.87-.38-5.35-7.22-.11-.94-.11-.94.87.37.87.38 5.35 7.23.11.94zm17.8 3.07-.38.87-.38.87-7.22 5.35-.94.11-.94.11.37-.87.38-.87 7.23-5.35.94-.11zm-10.18 7.27-.87-.37-.87-.38-5.35-7.23-.11-.94-.11-.94.87.38.87.38 5.35 7.22.11.94zm10.27-7.6-.87-.38-.87-.38-5.35-7.22-.11-.94-.11-.94.87.37.87.38 5.35 7.23.11.94z" />
    <path class="cls-5"
        d="M893.98 670.27s-26.74 14.99-26.86 23.71 35.67 52.54 35.67 52.54-32.45-42.11-32.52-52.36c-.08-11.74 23.71-23.89 23.71-23.89" />
    <path
        d="m538.9 184.4 109.29 10.84c9.67.96 16.7 9.64 15.62 19.3l-29.37 266.57c-5.44 2.88-9.72 16.5-19.31 15.41l-106.49-12.08c-9.5-1.08-16.36-9.59-15.4-19.1L496 437l12-10 6-23-14-5 19.81-198.99c.97-9.58 9.51-16.56 19.09-15.61"
        style="stroke-width:0;fill:#459399" />
    <path class="cls-5"
        d="M637.06 357.4a4.427 4.427 0 0 1-4.86 3.96l-18.99-1.93a4.42 4.42 0 0 1-3.96-4.02l-3.34-37.6s-.07-.06-.08-.01l-25.56 59.31a4.434 4.434 0 0 1-4.59 2.83h-.14c-2.04-.29-3.63-1.93-3.82-3.98L560.7 295.3s-.07-.05-.09 0l-19.18 53.46a4.44 4.44 0 0 1-4.62 2.91l-19.49-1.98c-2.26-.23-4.13-2.06-4.17-4.33a4.43 4.43 0 0 1 4.88-4.51l16.19 1.64s.04 0 .05-.03l24.71-68.89c.7-1.95 2.66-3.16 4.72-2.91 2.06.26 3.67 1.91 3.87 3.97l11.11 81.59s.07.05.08.01l25.71-59.71c.74-1.93 2.71-3.1 4.76-2.81 2.04.28 3.62 1.94 3.8 4l4.72 53.21s.02.04.04.04l15.31 1.55c2.44.25 4.21 2.42 3.96 4.86Z" />
    <path
        d="M602.95 552.2s1.13-16.33 8.45-36.65c8.53-23.67 25.54-34.9 30.48-54.84 3.31-13.35 1.59-85.72 7.14-102.39 3.64-10.92 15.69-20.13 23.56-25.18 3.29-2.11 7.64-.11 8.15 3.77 2.91 22.23 11.23 84.48 15.13 99.2 4.76 18 2.38 121.44 2.38 121.44l30.96 73.82s-23.81 35.72-54.17 48.81c-23.56 10.16-67.11 5.95-67.11 5.95l-23.97-78.58s-54.43-26.98-73.75-51.59c-11.95-15.22-46.48-83.4-49.25-103.63-1.62-11.82-.87-33.49 2.49-38.85 4.2-6.7 42.12-15.12 46.88-15.12s5.09 11.85.33 24.79-30.28 20.69-30.28 20.69"
        style="fill:none;stroke-linecap:round;stroke-linejoin:round;stroke:#191919;stroke-width:4.87px" />
    <path class="cls-2"
        d="M488.56 406.3s-1.49 9.96.89 11.75 18.69-2.82 20.06-4.6c1.37-1.79 3.28-9.59 1.07-12.24-2.2-2.65-22.03 5.1-22.03 5.1Z" />
</svg>