<svg xmlns="http://www.w3.org/2000/svg" width="800" height="200" viewBox="200 450 700 200" xml:space="preserve">
  <g transform="translate(540 540)"/>
  <g transform="translate(540 540)"/>
  <path style="stroke:none;stroke-width:0;stroke-dasharray:none;stroke-linecap:butt;stroke-dashoffset:0;stroke-linejoin:miter;stroke-miterlimit:4;fill:#439398;fill-rule:nonzero;opacity:1" vector-effect="non-scaling-stroke" transform="translate(192.99 331.66)" d="M625 184.1c0 .64-.12 1.18-.33 1.83l-15.3 42.56c-5.77 17.32-8.95 24.69-19.46 24.51H221.64c-3.21 0-5.97-2.27-6.57-5.43l-10.82-56.27-29.45 93.32a6.69 6.69 0 0 1-6.47 4.95h-.21c-3.11-.1-5.75-2.33-6.35-5.37l-28.94-119.85-20.74 83.57a6.715 6.715 0 0 1-6.5 5.08H75.7c-3.71 0-6.7-3-6.7-6.7s3-6.7 6.7-6.7h24.64l26.65-107.4a6.715 6.715 0 0 1 6.66-5.09c3.14.07 5.8 2.31 6.42 5.38l29.21 121.2 29.61-93.91c.82-3.02 3.6-5.08 6.73-4.95 3.11.12 5.75 2.37 6.33 5.43l15.23 79.34h362.74c3.36 0 6.77-11.97 6.77-11.97l-19.41-41.93c-.22-.54-.43-1.18-.43-1.82 0-2.37 1.94-4.51 4.5-4.51h4.62a4.9 4.9 0 0 1 4.5 3.01l9.98 23.37c.97 2.37 1.61 4.62 2.35 6.97.43-2.25.86-4.6 1.73-7.07l7.39-22.52c.76-2.25 2.9-3.75 5.26-3.75h3.11c2.68 0 4.72 2.26 4.72 4.72Z"/>
  <path style="stroke:none;stroke-width:0;stroke-dasharray:none;stroke-linecap:butt;stroke-dashoffset:0;stroke-linejoin:miter;stroke-miterlimit:4;fill:#439398;fill-rule:nonzero;opacity:1" vector-effect="non-scaling-stroke" transform="translate(192.99 331.66)" d="M234.25 203.51c0-14.48 10.29-25.31 26.27-25.31s26.27 10.83 26.27 25.31-10.29 25.31-26.27 25.31-26.27-10.83-26.27-25.31m13.19 0c0 8.04 5.58 13.83 13.08 13.83s13.19-5.47 13.19-13.83-5.68-13.73-13.19-13.73-13.08 5.36-13.08 13.73m60.47-21.12c3-2.36 7.61-4.18 12.76-4.18 14.37 0 22.95 10.29 22.95 24.56 0 15.87-10.62 26.06-27.56 26.06-6.43 0-12.97-1.72-17.59-3.86-1.5-.64-2.89-2.79-2.89-4.5v-63.91c0-2.14 1.82-3.97 3.97-3.97h4.4c2.14 0 3.97 1.82 3.97 3.97v25.84Zm0 32.49c2.68 1.72 5.36 2.47 8.79 2.47 7.72 0 13.73-5.04 13.73-13.73 0-9.22-5.68-13.83-12.65-13.83-4.29 0-7.83 2.25-9.87 4.61zm53.94-35.49c2.14 0 3.97 1.82 3.97 3.97v40.32c0 2.14-1.82 3.97-3.97 3.97h-4.4c-2.14 0-3.97-1.82-3.97-3.97v-40.32c0-2.14 1.82-3.97 3.97-3.97z"/>
  <path style="stroke:none;stroke-width:0;stroke-dasharray:none;stroke-linecap:butt;stroke-dashoffset:0;stroke-linejoin:miter;stroke-miterlimit:4;fill:#439398;fill-rule:nonzero;opacity:1" vector-effect="non-scaling-stroke" transform="translate(193 331.67)" d="M379.65 215.2c.75-.97 1.61-1.39 2.57-1.39 1.07 0 2.14.43 3.22 1.18 3.43 2.25 7.29 3.54 11.9 3.54 3.54 0 6.33-1.5 6.33-4.5 0-7.83-26.06-3.54-26.06-21.12 0-9.44 7.72-14.69 17.69-14.69 7.08 0 12.22 2.04 16.08 4.5.97.64 1.61 1.93 1.61 3.22 0 .75-.21 1.5-.64 2.14l-1.18 1.72c-.86 1.18-1.82 1.72-3 1.72-.86 0-1.72-.32-2.68-.75-2.89-1.5-5.9-2.25-9.54-2.25s-6 2.04-6 4.18c0 8.04 26.06 3.64 26.06 20.69 0 9.54-7.72 15.44-19.52 15.44-7.51 0-12.97-2.25-18.01-6.65-.86-.75-1.18-1.72-1.18-2.68 0-.75.21-1.61.75-2.25l1.61-2.04Z"/>
  <path style="stroke:none;stroke-width:0;stroke-dasharray:none;stroke-linecap:butt;stroke-dashoffset:0;stroke-linejoin:miter;stroke-miterlimit:4;fill:#439398;fill-rule:nonzero;opacity:1" vector-effect="non-scaling-stroke" transform="translate(192.99 331.66)" d="M454.29 220.24c.32.54.54 1.18.54 1.82 0 1.39-.64 2.79-1.82 3.43-3.65 2.14-7.29 3.22-12.12 3.22-10.94 0-15.01-7.08-15.01-19.41v-39.35c0-2.14 1.82-3.97 3.97-3.97h4.4c2.14 0 3.97 1.82 3.97 3.97v9.44h11.58c2.14 0 3.97 1.82 3.97 3.97v3.65c0 2.14-1.82 3.97-3.97 3.97h-11.58v17.59c0 5.25 1.72 8.68 5.79 8.68 1.29 0 2.47-.21 3.43-.54.97-.32 1.72-.54 2.47-.54 1.39 0 2.47.64 3.32 2.14l1.07 1.93Zm31.09-2.89c4.07 0 8.04-2.25 10.83-5.9v-28.09c0-2.14 1.82-3.97 3.97-3.97h4.4c2.14 0 3.97 1.82 3.97 3.97v40.32c0 2.14-1.82 3.97-3.97 3.97h-4.4c-2.14 0-3.97-1.82-3.97-3.97v-1.93c-2.89 3.54-7.93 7.08-15.44 7.08-9.44 0-16.94-6.11-16.94-19.94v-25.52c0-2.14 1.82-3.97 3.97-3.97h4.4c2.14 0 3.97 1.82 3.97 3.97v22.95c0 6.43 2.47 11.04 9.22 11.04Zm78.17-64.77c2.14 0 3.97 1.82 3.97 3.97v67.12c0 2.14-1.82 3.97-3.97 3.97h-4.4c-2.14 0-3.97-1.82-3.97-3.97v-1.07c-3.22 3.43-7.61 5.9-13.83 5.9-13.83 0-22.73-9.76-22.73-24.45s10.94-25.84 26.48-25.84c4.29 0 7.4.75 10.08 2.36v-24.02c0-2.14 1.82-3.97 3.97-3.97zm-8.36 40.11c-3.11-1.93-6.22-2.9-9.54-2.9-7.29 0-13.83 4.93-13.83 13.83s5.58 13.4 12.12 13.4c4.5 0 8.47-2.14 11.26-4.93v-19.41Z"/>
  <rect style="stroke:none;stroke-width:0;stroke-dasharray:none;stroke-linecap:butt;stroke-dashoffset:0;stroke-linejoin:miter;stroke-miterlimit:4;fill:#439398;fill-rule:nonzero;opacity:1" vector-effect="non-scaling-stroke" x="-6.025" y="-6.025" rx="6.02" ry="6.02" width="12.05" height="12.05" transform="translate(552.65 495.73)"/>
</svg>