<svg id="Lager_2" xmlns="http://www.w3.org/2000/svg" viewBox="0 0 700 909">
    <defs>
        <style>
            .cls-10,.cls-11,.cls-14,.cls-17,.cls-2,.cls-6,.cls-7{stroke-linecap:round}.cls-10,.cls-14,.cls-17,.cls-2,.cls-6,.cls-7{stroke-linejoin:round}.cls-10,.cls-11,.cls-17,.cls-6{fill:none}.cls-2{stroke-width:2.98px}.cls-10,.cls-11,.cls-14,.cls-2,.cls-6,.cls-7{stroke:#191919}.cls-14,.cls-19,.cls-2{fill:#fff}.cls-19,.cls-22,.cls-23,.cls-25{stroke-width:0}.cls-6,.cls-7{stroke-width:5.26px}.cls-17{stroke-width:2.24px}.cls-22,.cls-7{fill:#75bfcb}.cls-10{stroke-width:7px}.cls-23{fill:#71bbcc}.cls-17{stroke:#000}.cls-11{stroke-width:3.51px;stroke-miterlimit:10}.cls-14{stroke-width:5.2px}.cls-25{fill:#191919}</style>
    </defs>
    <path class="cls-2"
        d="M45.86 619.38s12.74-40.56 17.7-79 17.69-67.92 20.17-70.4 8.84-9.26 12.56-14.84 35.14-101.14 34.52-106.1-5.58-7.44-4.96-24.18 8.68-27.9 8.68-27.9l64.34 8.52s-20.82 83.87-42.89 126.66c-22.07 42.78-83.46 159.97-82.84 167.41s22.94 20.46 22.94 20.46l-50.22-.62Z" />
    <path class="cls-2"
        d="M165.03 413.03s34.6 61.26 36.46 69.94-1.09 26.09 3.25 32.29 62.47 81.18 66.81 91.1 8.06 9.3 8.06 9.3l40.92-25.42s-24.8 6.2-32.24 2.48-46.5-121.53-59.52-156.87-32.9-118.83-32.9-118.83l-30.84 96.02Z" />
    <path class="cls-19"
        d="m200.9 110.44 2.31 4.8.27 22.65 4.74 1.4-1.53 3.51-3.86 2.6-3.56 21.18-23.88 10-3.78 12.49-24.46-4.6 1.88-18.29 1.92-31.78 4.23-3.75 19.81-16.76z" />
    <path class="cls-17"
        d="M152.74 171.68s-.8 4.22-1.91 8.15c-3.99 14.14-.57 9.25 2.71 5.82l20.24-.21s-.28-6.8-.19-11.05-1.73-9.8-1.73-9.8l-20.36.02 1.25 7.08Z" />
    <path
        d="M203.06 116.79s.81 6.21.29 11.25-1.14 10.06-1.14 10.06 5.72-1.37 5.9 1.97-5.19 4.36-5.19 4.36-.12 1.6-.39 3.86c-.14 1.17.35 2.43.13 3.83-.28 1.85-.89 1.31-1.43 2.81-.29.82.39 1.75.19 2.98-.24 1.49-1.33 3.24-1.33 3.24"
        style="stroke-linecap:round;stroke-linejoin:round;fill:none;stroke:#191919;stroke-width:2.24px" />
    <ellipse cx="194.62" cy="134.15" rx="3.72" ry="1.86" transform="rotate(-84.11 194.634 134.15)"
        style="fill:#000;stroke-width:0" />
    <path class="cls-17" d="M164.17 147.22s-2.44-8.51-6.78-10.2" />
    <path class="cls-23"
        d="M198.37 120.57s1.1 6.84.4 7.36c-.7.51-9.36-.44-9.36-.44s-.74-4.48.69-5.51 8.27-1.4 8.27-1.4Z" />
    <path
        style="stroke-linecap:round;stroke-linejoin:round;fill:none;stroke:#71bbcc;stroke-width:1.18px"
        d="m200.26 127.38-.25-4.6" />
    <path d="M192.78 152.01s1.69 1.76 8.01 2.41m-5.3-3.04s5.13-4.3 6.64-2.43"
        style="stroke-linecap:round;stroke-linejoin:round;fill:none;stroke-width:1.49px;stroke:#000" />
    <path d="M194.23 156.03s.77 1.64 2 2.49"
        style="stroke-linecap:round;stroke-linejoin:round;fill:none;stroke:#191919;stroke-width:1.49px" />
    <circle class="cls-19" cx="164.72" cy="167.26" r="6.5" />
    <path class="cls-23"
        d="M175.7 140.77c.07.79 4.66 18.25 6.87 19.56 2.2 1.32 17.5 2.06 17.5 2.06s-.42 12.16-2.39 16.17c-1.97 4-26.08 3.55-28.61-2.17-2.53-5.71-3.97-18.95-3.45-20.93.52-1.97 10.09-14.7 10.09-14.7Z" />
    <path class="cls-23"
        d="M200.51 98.07c.93.99 7.19 15.08 5.2 19.13s-24.07-2.38-27.48 2.47c-3.41 4.84-3.22 21.17-3.22 21.17l-7.71.97s-7.6-15.24-10.84-11.93c-1.3 1.33-8.48 6.78-4.83 16.04 1.52 3.86 11.48 6.55 11.46 6.79-.08.82-1.43 14.92-3.33 17.21s-17.41 3.61-19.72-.16 1.76-9.03-1.17-12.83-5.48-3.23-5.15-4.44 2.79 1.12 3.78-2.42c.99-3.53-.38-8.45-.38-8.45l2.78-3.45s-9.56-1.3-7.36-6.52c2.2-5.23-1.43-.22 2.34-.55s3.64-5.12 3.64-5.12-3.86-6.58-2.77-9.43c1.1-2.85 4.87-4.9 5.35-7.55s-1.67-5.99-2.28-6.05c-.62-.06 2 3.32 4.61.89s-2.14-4.17.74-7.2 9.2-3.83 9.77-3.36 1 2.39 3.74 2.05 1.62-4.61 4.94-6.14.63-1.6 2.84 1.12 5.58 2.65 6.98 1.97 2.45-4.73 7.38-4.23c4.93.51 6 2.28 6.55 2.96s2.78 5.27 4.82 3.61 3.98 1.66 3.98 1.66l4.11-4.56s.11 5.18 1.21 6.36Z" />
    <path class="cls-17"
        d="M167.02 141.64s-5.09-15.37-11.72-11.54c-6.29 3.64-5.07 13.17-3.95 15.64 2.67 5.88 11.46 6.79 11.46 6.79" />
    <path class="cls-23"
        d="M137.84 179.02c6.24-4.43 16.53 2.19 30.58 1.37 14.05-.83 20.67 9.92 24.8 15.71 3.5 4.9 9.36 33.95 11.08 42.78.3 1.53-.54 3.03-1.99 3.59 0 0 .29 1.72.32 3.72.1 8.67.52 29.44 2.25 34.54 2.32 6.86 1.83 19.52 1.46 25.3a3.19 3.19 0 0 1-3.25 2.98c-8.76-.18-34.76-.94-53.07-3.99-22.32-3.72-28.52-.62-25.42-17.36 2.44-13.16 4.11-24.02 4.71-28.06.16-1.05-.21-2.09-.99-2.81-2.42-2.24-7.68-7.42-9.09-11.49-1.86-5.35 14.23-63.16 18.61-66.26Z" />
    <path
        style="stroke-linecap:round;stroke-linejoin:round;stroke:#191919;fill:#fff;stroke-width:2.24px"
        d="m263.7 245.57-9.99 3.22 4.41-12.44 35.31-9.21.62 11.56z" />
    <path class="cls-2"
        d="M172.14 284.55c-3.43-10.86 0-41.49 0-41.49l26.04-2.74s-2.07 26.04-.41 29.76l57.32-17.49 4.67-7.82 3.25-4.98 7.74-5.95.38 5.54-.1 4.16 23.02-4.85-13.95 11.05-.84 6.29-5.18 6.4-13.71 2.74-65.19 37.17-11.74 2.33-11.3-20.13Z" />
    <path class="cls-23"
        d="M200.75 243.22s-25.85 0-35.72 5.08 3.95-21.53 3.95-21.53l23.36 4.27 8.18 4.01.24 8.18Z" />
    <path
        d="M387.68 562.46s24.07-19.36 24.57-28.47-1.62-40.16-1.62-40.16l-10.64-.54 1.75 28.24-31.76 15.17 17.7 25.75Z"
        style="stroke-width:0;fill:#95cfdb" />
    <path class="cls-22"
        d="m512.55 453.94 5.3 21.79c.11.45-.37.81-.78.59L505.83 470a.52.52 0 0 0-.66.12l-9.13 10.61c-.27.31-.77.21-.9-.18l-2.17-6.47a.53.53 0 0 1 .07-.47l14.38-20.62a.53.53 0 0 1 .53-.22l4.18.78c.21.04.37.19.42.4Z" />
    <path
        d="M363.96 325.39s-7.73 23.89-7.82 40.46c-.08 14.26-15.73 15.53-15.93 29.42-.09 6.04-2.64 27.77 6.28 46.25 11.59 24.01 36 45.36 42.81 48.55 12.06 5.64 91.25-3.45 98.52-10.44 7.26-6.99 21.38-29.4 21.38-29.4s32.27 7.01 43.04-16.62c10.76-23.63 5.49-36.93 5.49-36.93s-11.95-7.76-25.37-.85c-11.21 5.76-13.33 14.5-13.33 14.5"
        style="stroke-linecap:round;stroke-linejoin:round;stroke:#191919;fill:#fff;stroke-width:5.26px" />
    <path class="cls-6"
        d="M339.88 411.7s-15.85-6.06-16.15-34.74c-.32-29.96 15.53-32.84 15.53-32.84s12.17 4.4 17.37 14.47" />
    <path class="cls-11" d="M512.65 431.19s4.36-9.02 15.43-15.6c11.06-6.58 18.91-3.93 18.91-3.93" />
    <path class="cls-11"
        d="M525.82 435.69c.78-1.01 4.27-2.14 5.8-8.72 1.52-6.57-.91-10.3-.91-10.3m-127.54-27.31s-13.91 4.26-19.31 4.45 15.77 14.56 15.77 14.56m10.93.55s.14-2.36 3.92-3.44 4.9.91 4.9.91" />
    <path
        d="M479.38 381.79s2.39-.5 7.69-.25c5.42.25 8.34 1.93 8.34 1.93m-16.96 7.21c1.2-.17 3.13.03 6.12.68 2.16.47 5.25 2.34 5.91 2.62"
        style="stroke-linecap:round;stroke-linejoin:round;fill:none;stroke-width:3.57px;stroke:#75bfcb" />
    <path class="cls-22"
        d="M463.12 335.11c-1.49 1.66-2.05 12.6 0 13.48s10.06-1.5 17.58 0c11.72 2.34 16.7 7.62 18.02 4.1s-4.83-15.02-13.63-17.95c-8.79-2.93-20.15-1.67-21.98.37Zm-60.63-14c1.16 1.9-.27 12.76-2.45 13.25s-9.62-3.31-17.29-3.19c-11.95.18-17.81 4.46-18.47.76s7.48-13.89 16.66-15.17 20.12 2.02 21.54 4.35Z" />
    <path class="cls-11" d="M336.44 362.64s11.63 2.41 15.94 9.67l1.28 2.16" />
    <path class="cls-11" d="M342.44 384.51c-.54-10.06 7.56-13.49 7.56-13.49" />
    <circle class="cls-25" cx="514.75" cy="441.34" r="3.93" />
    <path class="cls-22"
        d="M497.91 294.09c.08-.53-.65-.76-.87-.28-3.03 6.42-10.32 20.02-22.07 31.41-12.56 12.18-34.22 27.64-40.15 31.8-.4.28-.9-.15-.68-.59 2.7-5.27 10.95-21.74 12.98-29.88 1.75-7.03 1.68-10.22 1.5-11.46a.454.454 0 0 0-.7-.31c-3.16 1.98-20 11.68-48.39 12.69-25.45.91-49.86-4.2-58.45-6.24-.52-.12-.44-.88.09-.91 4.69-.26 13.15-1.18 17.64-4.43 5.02-3.63 6.64-6.21 7.1-7.16.11-.23.02-.48-.21-.6-2.45-1.23-16.14-8.38-23.97-18.51-6.42-8.3-10.42-13.25-12.04-15.24-.28-.34.02-.83.45-.75 3.93.79 16.12 2.95 25.65 1.67 9.89-1.33 19.64-5.62 22.22-6.82.31-.14.35-.54.1-.76-1.35-1.21-5.18-5.24-11.47-16.57-6.44-11.58-7.99-18.68-8.35-21.03-.06-.37.31-.64.64-.48 2.16 1.02 9.24 3.71 24.68 4.35 19.12.79 29.1-3.5 46.6-.55 12.79 2.16 21.29 7.14 24.94 9.66.41.28.91-.19.65-.62-2.22-3.65-6.31-11.32-6.17-18.05.15-7.32 3.39-14.64 4.71-17.33.19-.38.74-.34.86.07 1 3.53 4.51 14.23 11.31 18.56 8.2 5.22 19.55 7.56 28.72 14.75 11.96 9.38 15.09 18.25 15.12 20.37 0 .26.21.45.46.44 1.74-.05 7.97-.17 10.41.81 2.69 1.08 3.76 16.75 3.87 18.43 0 .11.04.18.11.26.79.84 6.13 6.01 17.72 5.06 10.1-.83 13.32-3.16 15-3.35.31-.04.57.25.5.55-.4 1.79.1 7.1-5.1 12.16-5.61 5.46-13.67 2.74-8.32 10.77 5.55 8.32 14.3 42.45 16.3 44.67.23.25.11.65-.22.75-2.47.7-10.57 3.31-12.78 8.25-2.48 5.54-4.49 27.82-4.71 30.36-.01.14-22.07 24.57-28.17 26.12-6.42 1.63 2.37-3.66 4.81-19.17 1.21-7.67-4.62 1.79-8.52 3.03s13.02-10.79 12.73-37.12-2.85-22.44-2.85-22.44-12.18 4.61-13.5 8.44c-1.33 3.83-1.49-5.13.3-18.04 1.25-8.97 2.18-13.09 2.63-14.77.1-.39-.28-.71-.64-.54-2.5 1.19-9.33 4.33-12.85 4.66-3.42.33-.89-18.13.36-26.1Z" />
    <path class="cls-22"
        d="M530.51 278.39c1.17-2.03 10.48-23.72 16.86-19.15 6.39 4.57 5.56 9.93.55 14.72s-17.41 4.42-17.41 4.42Z" />
    <path class="cls-6"
        d="M500.18 512.37s-19.56-2.41-22.99-4.76c-3.42-2.35.85-24.42.85-24.42m-78.05 10.11s4.87 24.73 1.75 28.24-21.91 7.7-21.91 7.7m248.51 194.12 14.04 98.97s-21.53 10.62-37.91 10.26c-22.93-.5-34.16-7.02-34.51-5.02l-18.56-93.1" />
    <path
        d="M382.73 425.37s2.97-8.78 10.2-6.38c7.23 2.39 8.28 15.03 4.93 22.01s-11.61 11.14-15.94.34"
        style="stroke-linecap:round;fill:none;stroke:#191919;stroke-miterlimit:10;stroke-width:4.83px" />
    <path class="cls-14"
        d="M346.22 781.62s-27.03 54.5-31.31 60.19-29.9-1.5-29.9-1.5-40-68.26-38.41-86.79 58.77-191.1 58.9-193.73c0 0-17.01-36.16-18.37-42.13s8.94-12.03 8.94-12.03-.34-7.74 1.82-12.34c2.16-4.59 7.07-6.26 7.07-6.26s-3.25-10.46-1.54-17.44 8.03-9.48 8.03-9.48 8.49 4.85 15.59 12.9 19.24 31.36 19.24 31.36.41 7.91-3.8 10.05-9.87-2.04-9.87-2.04l-18.79-27.4" />
    <path class="cls-7"
        d="M551.41 734.48c-1.23 34.57-3.8 75.54-3.8 75.54s-4.34 9.08-88.29 11.96c-83.37 2.86-102.5-2.05-102.5-2.05l-22.87-98.38" />
    <path class="cls-22"
        d="M614.18 665.08c-6.07 3.29-68.93 80.99-76.13 80.79s-202.74-24.33-202.74-24.33l16.91-143.59 24.42-30.4 87.42 67.59 150.12 49.93Z" />
    <path class="cls-7"
        d="M343.19 538.8c12.62-4.75 36.22-13.13 36.22-13.13s7.64 53.03 55.62 44.63c47.99-8.4 66.43-57.13 66.43-57.13s83.14 25.29 91.2 30.83 57.2 129.63 57.2 129.63l9.27 3.55s3.59 30.39 2.77 33.43-22.12 10.22-43.64 15.26c-28.71 6.73-77.86 8.79-77.86 8.79s-8.74-24.35-4.68-29.75c2.42-3.22 6.61-10.16 6.61-10.16l-6.26-26.86" />
    <path class="cls-19" d="m353.33 507.88-12.22 52.24 22.4-9.91 2.05-31.13z" />
    <path
        d="M318.2 542.91s7.51 7.71 16.46 8.32 13.57-.85 13.22-1.55 5.99-21.55 5.99-21.55l19.46-68.8-3.76-8.51 4.91-3.6 14.55-1.82s6.39.3 7.9-10.26c1.48-10.33-3.64-13.47-3.64-13.47l-34.78-16.25s-2.95 1.86-9.05 9.82c-6.1 7.97-4.78 20.62-4.78 20.62l-.35 7.46s-4.94 3.57-5.62 4.4-6.77 27.13-6.77 27.13l16.34 27.69s1.43 7.7-2.23 11.78c-3.36 3.74-5.31 2.85-5.31 2.85l-2.49.34-20.04 25.4Z"
        style="stroke-width:0;fill:#459399" />
    <path class="cls-14"
        d="M301.61 510s11.46 4.18 15.03 9.75c3.56 5.57 17.54 20.07 21.42 21.19s10.6-6.81 10.6-6.81l-14.65-25.4-25-18.67" />
    <path class="cls-14"
        d="m296.11 528.7 21.23 14.45s4.6 2.78 7.76 1.35 5.22-9.21 5.22-9.21m-9.64-68.5c-.71-.6-.78-18.23-.78-18.23.54-.96 6.13-11.09 11.61-12.5 5.48-1.4 6.62.33 6.62.33l12.45 21.63s-4.75 6.35-10.16 6.33c-5.41-.03-10.94-7.39-10.94-7.39m-8.9 328.39s9.67-21.74 10.41-36.42c.41-8.21 19.87-170.99 19.87-170.99l15.58-14.37 21.47-50.58-.22-30.92-5.8-22.48s-6.68 2.15-9.47 5.69.14 19.27.14 19.27l-3.38 19.14-7.98 7.29" />
    <path d="M649.86 673.64s-13.85 14.91-35.23 21.48c-32.46 9.97-75.79 8.04-75.79 8.04"
        style="stroke-linecap:round;stroke-linejoin:round;fill:none;stroke-width:3.57px;stroke:#000" />
    <ellipse class="cls-25" cx="460.14" cy="381.66" rx="12.01" ry="7.76"
        transform="rotate(-84.85 460.145 381.662)" />
    <ellipse class="cls-25" cx="374.17" cy="373.89" rx="12.01" ry="7.03"
        transform="rotate(-86.89 374.142 373.884)" />
    <path
        d="M432.78 419.24s-11.35 5.87-13.04 16.08c-1.94 11.75 4.55 20.26 4.55 20.26m14.5-38.24 5.5-.92"
        style="stroke-linecap:round;stroke-linejoin:round;fill:none;stroke:#75bfcb;stroke-width:3.13px" />
</svg>