<svg id="Lager_2" xmlns="http://www.w3.org/2000/svg" viewBox="0 0 394 518">
    <defs>
        <style>
            .cls-3,.cls-5{stroke-width:0}.cls-6{stroke-width:1.49px}.cls-6,.cls-7{stroke-linecap:round;stroke-linejoin:round;stroke:#191919}.cls-6{fill:none}.cls-7{stroke-width:1.74px}.cls-5,.cls-7{fill:#fff}.cls-3{fill:#71bbce}</style>
    </defs>
    <circle cx="188.39" cy="262.07" r="172.04" style="stroke-width:0;fill:#cde8eb" />
    <path transform="rotate(180 137.51 390.18)" style="stroke-width:0;fill:#459399"
        d="M96.3 348.97h82.43v82.43H96.3z" />
    <path class="cls-7"
        d="m240.76 222.45 7.43 14.17a35.32 35.32 0 0 1 2.82 25.61l-5.43 20.07-9.89 37.41 6.35 8.38c2.97 3.92 4.45 8.78 4.17 13.69l-5.18 89.63h-34.85l20.43-12.31-18.09-92.79-6.3-61.4 6.37-40.02 32.16-2.42Z" />
    <path class="cls-5"
        d="m203.89 99.47-1.48 2.92-.45 13.88-2.92.8.9 2.16 2.33 1.65 1.91 13.02 15.76 6.49 2.04 7.46 13.92-2.33-3.74-10.21 2.04-20.52-2.55-2.35-11.93-10.52z" />
    <path class="cls-6"
        d="M232.59 137.63s1.13 2.38 2.4 4.53c4.57 7.76 1.78 5.4-.7 3.87l-12.03 3.03s-.89-4.08-1.61-6.58c-.71-2.51-.5-6.08-.5-6.08l12.08-3.16zm-30.1-34.29s-.58 3.8-.32 6.89c.25 3.09.57 6.18.57 6.18s-3.49-.91-3.64 1.13 3.13 2.74 3.13 2.74.06.98.19 2.37c.07.72-.24 1.49-.13 2.35.15 1.14.53.82.84 1.74.17.51-.26 1.07-.15 1.83.13.92.77 2 .77 2" />
    <ellipse cx="207.44" cy="114.09" rx="1.14" ry="2.28" transform="rotate(-4.71 207.455 114.119)"
        style="fill:#000;stroke-width:0" />
    <path class="cls-6" d="M225.94 122.48s1.6-5.18 4.28-6.17" />
    <path class="cls-3"
        d="M205.31 105.72s-.76 4.18-.34 4.5 5.74-.15 5.74-.15.51-2.74-.35-3.39-5.05-.96-5.05-.96" />
    <path
        style="stroke-linecap:round;stroke-linejoin:round;fill:none;stroke:#71bbce;stroke-width:.72px"
        d="m204.07 109.87.21-2.82" />
    <path
        d="M208.35 125.06s-1.06 1.06-4.94 1.38m3.28-1.8s-3.09-2.7-4.04-1.57m4.75 4.43s-.49.99-1.26 1.5"
        style="stroke-linecap:round;stroke-linejoin:round;stroke:#191919;fill:none;stroke-width:.87px" />
    <circle class="cls-5" cx="225.35" cy="134.75" r="3.98" />
    <path class="cls-3"
        d="M218.95 118.38c-.06.48-3.09 11.12-4.45 11.9-1.37.78-10.75 1.04-10.75 1.04s.11 7.46 1.26 9.94c1.16 2.48 15.94 2.5 17.56-.97s2.67-11.57 2.38-12.78c-.29-1.22-6-9.14-6-9.14Z" />
    <path class="cls-3"
        d="M204.28 91.9c-.58.6-4.6 9.15-3.43 11.66s14.78-1.15 16.81 1.86 1.71 13.02 1.71 13.02l4.71.69s4.85-9.25 6.79-7.18c.78.83 5.11 4.26 2.76 9.89-.98 2.35-7.12 3.87-7.11 4.02.04.51.69 9.16 1.83 10.59 1.13 1.43 10.62 2.43 12.09.15 1.46-2.28-.97-5.56.88-7.85s3.4-1.91 3.21-2.66-1.73.65-2.29-1.53.34-5.18.34-5.18l-1.66-2.15s5.87-.67 4.59-3.91c-1.28-3.23.88-.12-1.43-.37s-2.17-3.18-2.17-3.18 2.45-3.98 1.82-5.74-2.92-3.06-3.18-4.7c-.26-1.63 1.1-3.65 1.48-3.68s-1.27 2.01-2.84.49 1.36-2.53-.36-4.42c-1.73-1.89-5.59-2.46-5.95-2.18s-.64 1.45-2.32 1.21c-1.67-.24-.93-2.85-2.95-3.82s-.37-.99-1.76.65-3.45 1.56-4.3 1.12-1.44-2.93-4.47-2.68-3.7 1.32-4.05 1.73-1.77 3.2-3 2.15c-1.23-1.04-2.46.97-2.46.97l-2.46-2.85s-.13 3.17-.82 3.88Z" />
    <path class="cls-6"
        d="M224.26 119.02s3.31-9.36 7.33-6.92c3.81 2.31 2.94 8.14 2.22 9.64-1.71 3.57-7.11 4.02-7.11 4.02" />
    <path class="cls-7"
        d="m250.16 258.67-4.34 9.51a17.41 17.41 0 0 1-17.24 10.14l-20.29-1.62-54.67-5.86 1.56 1.75a15.7 15.7 0 0 1 3.84 12.66l-6.65 47.13 2.68 16.59h-40.14l25.16-14.99-17.67-72.8 3.9-8.1a15.54 15.54 0 0 1 9.85-8.23l72.43-19.98 32.17-2.42 8.86 16.89c3.15 6.01 3.35 13.14.54 19.32Z" />
    <path class="cls-7"
        d="M190.15 284.6c.27-2 2.55-9.24 2.59-9.41.24-.82.49-1.54.51-3.43 0-.38.02-.88.07-1.49-.02-1.62 0-3.06.08-4.14.49-6.56 10.45-56.61 10.69-59.1.24-2.48-.35-21.75-.35-21.75l16.37 3.6s-.03 14.96.08 21.94c.09 6.98-15.83 58.69-15.83 58.69s0 .02.01.07c-.01.01 0 .02 0 .04 1.19 2.97 3.94 9.85 4.43 11.01.63 1.47 1.35 4.5.54 13.58-.07.76-1.69 1.2-1.69 1.2s-1.24-9.12-1.63-10.47l-.66 13.12c-3.33 4.35-11.04 4.48-11.04 4.48s-2.18-9.09-2.69-11.41c.14-.94.61-3.95.98-6.31-.47 2.59-1.12 5.65-1.08 5.91q.03.12.09.39c-.03.2-.05.3-.05.3s-1.77-4.48-1.45-6.83Zm2.92-2.51c-.08.5-.24 1.49-.43 2.65.2-1.03.36-1.99.43-2.65" />
    <path class="cls-3"
        d="M239.73 145.81c-3.63-3.06-10.2.74-18.76-.35-8.56-1.08-14.55 4.7-15.82 8.99-1.4 4.74-7.58 31.93-7.58 31.93s3.65 3.67 10.05 4.88 13.45.64 13.45.64.11 17.44-.15 21.28c-.06.84-3.05 12.81-3.05 12.81s.99-.1 9.23-.65c13.85-.93 17.47.74 16.27-10.02-1.21-10.75-1.81-19.1-1.81-19.1s5.48-4.27 6.84-7.6c1.36-3.32-6.1-40.67-8.65-42.81Z" />
</svg>