<svg id="Lager_2" xmlns="http://www.w3.org/2000/svg" viewBox="0 0 436 518">
    <defs>
        <style>
            .cls-2{fill:none}.cls-2,.cls-6{stroke-miterlimit:10}.cls-2{stroke-width:2.43px}.cls-2,.cls-6{stroke-linecap:round}.cls-2{stroke:#75bfcb}.cls-8{fill:#75bfcb;stroke-width:0}.cls-6{stroke:#191919;stroke-width:3.04px;fill:#fff}</style>
    </defs>
    <circle cx="221.17" cy="261.07" r="172.04" style="stroke-width:0;fill:#459399" />
    <path
        d="M30.95 267.2s86.41-51.96 96.31-63.36 44.69-73.15 57.34-78.4c12.66-5.25 13.32 8.07 21.66 9.67 8.34 1.61 11.87-6.38 20.69-3.6s6.3 17.81 7.7 18.85c1.4 1.05 13.18.6 15.63 4.62 2.45 4.01-.43 14.41.8 16.41 1.22 2.01 14.18 7.38 13.5 15.84s-4.01 9-6.84 17.51-7.32 22.88-11.68 27.25-63.06 21.22-77.11 29.79-96.55 88.55-96.55 88.55-20.08-14.73-30.46-41.07c-9.11-23.09-10.98-42.06-10.98-42.06Z"
        style="stroke-miterlimit:10;stroke:#191919;stroke-width:3.16px;fill:#fff" />
    <rect class="cls-8" x="129.6" y="193.97" width="29.49" height="78.71" rx="7.6" ry="7.6"
        transform="rotate(-43.5 144.335 233.322)" />
    <ellipse cx="158.76" cy="247.41" rx="7.56" ry="9.41" transform="rotate(-33.25 158.77 247.428)"
        style="stroke:#fff;stroke-width:1.81px;fill:none;stroke-miterlimit:10" />
    <path class="cls-8"
        d="M99.83 221.94s1.91-17.11 10.94-21.53 16.68 1.03 16.68 1.03L115 214.07l-2.54-.12-12.62 7.98Zm49.7 58.2s16.89 3.34 23.82-3.95c6.93-7.28 3.05-24.02 3.05-24.02l-15.01 13.26.36 2.86z" />
    <path
        d="M66.5 340.73c.95-10.74-29.98-67.59-18.51-72.42 11.47-4.84 36.12 43.08 44.64 43.72 8.51.65-20.38-52.89-11.35-59.49s27.48 35.03 37.09 32.41c9.6-2.63 1.5-17.76 1.5-17.76"
        style="fill:none;stroke-linecap:round;stroke:#75bfcb;stroke-linejoin:round;stroke-width:3.63px" />
    <path class="cls-2" d="M171.46 212.33c6.39-5.2 15.78-4.24 20.98 2.14" />
    <path class="cls-2" d="M167.72 208.16c8.78-7.16 21.7-5.84 28.85 2.95" />
    <path style="stroke-width:0;fill:#fff"
        d="m225.5 242.5 8.34-4.54 30.76-17.9 9.9-1.56 36.62 21.33 43.38 63.67 39.4 20.73-43.4 52.27-25-22-47-2-49-16-23-5 52-18-34.4-67.77z" />
    <path
        d="M228.35 337.18s-36.38-7.54-40.12-11.19c-1.21-1.18-1.12-10.25 12.19-15.94 14.95-6.39 60.02 4.71 60.02 4.71"
        style="stroke-miterlimit:10;stroke:#191919;stroke-width:3.04px;fill:#fff" />
    <path class="cls-8"
        d="M195.56 317.31c3.77-1.4 10.87-.19 13.75 2.55s-1.51 11.11-1.51 11.11-14.2-2.71-17.02-4.37c-3.84-2.25 1.98-8.24 4.78-9.28Z" />
    <path class="cls-6" d="M283.38 236.69s-28.71-15.3-34.8-12.97-9.09 9.64-9.09 9.64" />
    <path class="cls-6"
        d="M272.07 247.67s-30.59-16.63-37.57-15.63-10.41 11.12-10.41 11.12m49.98 81.55-23.61-18.19-20.2-26.33s-8.9-6.32-12.48-8.56-31.22-16.16-38.67-31.82c-7.42-15.6.7-24.68 5.04-20.54 4.08 3.9 76.37 48.03 76.37 48.03" />
    <path class="cls-8"
        d="M179.28 227.84c1.22 2.95 5.74 6.41 8.88 6.61s5.64-6.86 5.64-6.86-9.23-6.78-11.71-7.53c-3.37-1.01-3.72 5.59-2.81 7.78" />
    <path
        d="M228.35 337.18s43.73 16.08 50.71 16.23c4.36.09 46.07 2.09 46.07 2.09 20.98 16.58 31.79 27.5 31.79 27.5s21.23-16.3 29.87-34.92c8.65-18.62 6.98-23.1 6.98-23.1l-40-20.72s-37.22-61.99-43.13-65.95c-3.74-2.51-35.58-20.05-35.58-20.05s-7.98-.92-11.97 1.44-4.99 5.35-4.99 5.35"
        style="fill:none;stroke:#191919;stroke-width:3.04px;stroke-linejoin:round" />
</svg>