<svg id="Lager_2" xmlns="http://www.w3.org/2000/svg" viewBox="870 0 1000 1131">
  <defs>
    <style>
      .cls-2,.cls-4,.cls-5,.cls-6,.cls-7{stroke-width:0}.cls-8{fill:#71bbcd}.cls-11,.cls-12,.cls-13,.cls-15,.cls-16,.cls-19,.cls-20,.cls-21,.cls-24,.cls-26,.cls-27,.cls-28,.cls-29,.cls-30,.cls-33,.cls-34,.cls-9{stroke-linecap:round}.cls-11,.cls-12,.cls-13,.cls-15,.cls-19,.cls-20,.cls-21,.cls-26,.cls-27,.cls-28,.cls-29,.cls-33,.cls-34,.cls-9{fill:none}.cls-12,.cls-15,.cls-16,.cls-19,.cls-20,.cls-21,.cls-24,.cls-26,.cls-27,.cls-28,.cls-30,.cls-33,.cls-34,.cls-9{stroke-linejoin:round}.cls-11,.cls-12,.cls-13,.cls-15,.cls-16,.cls-21,.cls-24,.cls-26,.cls-27,.cls-28,.cls-29,.cls-30,.cls-33,.cls-9{stroke:#000}.cls-9{stroke-width:2.79px}.cls-19,.cls-20,.cls-34{stroke:#71bbcc}.cls-21,.cls-30{stroke-width:2.71px}.cls-2{fill:#000}.cls-11,.cls-13,.cls-29,.cls-8{stroke-miterlimit:10}.cls-11,.cls-26{stroke-width:2.78px}.cls-12,.cls-29{stroke-width:1.85px}.cls-4{fill:#94ceda}.cls-13{stroke-width:1.86px}.cls-5{fill:#95cfdb}.cls-15,.cls-19{stroke-width:1.81px}.cls-24,.cls-30,.cls-7{fill:#fff}.cls-16,.cls-24,.cls-27{stroke-width:2.66px}.cls-16,.cls-6{fill:#71bbcc}.cls-28{stroke-width:1.78px}.cls-8{stroke:#fff}.cls-20{stroke-width:1.81px}.cls-8{stroke-width:.93px}.cls-33,.cls-34{stroke-width:1.9px}</style>
  </defs>
  <path class="cls-7"
    d="m1040.11 560.3 5.55 3.24s-19.9 35.33-21.14 39.65c-1.23 4.32-10.65 42.59-10.65 42.59l-18.13 81.62s18.75 10.65 26.62 14.35 29.78 13.58 41.81 17.44 36.88 3.86 36.88 3.86l3.7-32.56.93-68.66.31-61.1.93-75.6s15.58 1.23 30.94.23c15.35-1 32.4-4.28 32.4-4.28s.23 2.2 2.08 29.28 4.63 38.88 5.79 49.3c1.16 10.41 11.57 49.07 19.67 79.38 8.1 30.32 17.13 63.18 18.28 67.12 1.16 3.93.08 8.72.08 8.72s29.32-4.78 38.11-7.33 36.57-20.6 36.57-20.6l-5.32-21.06s-17.36-58.55-24.92-81.85-37.8-84.4-38.88-86.71.46-43.36.46-43.36 8.18 8.64 19.75 23.76 25.15 27 28.85 27.62 4.47-1.23 11.88-4.47 7.25-12.03 10.65-28.24c3.39-16.2 8.02-20.06 8.02-20.06l5.4-1.39 1.39-4.32c1.39-4.78-1.23-8.95-1.54-14.81s-7.1-17.13-7.1-17.13l-25-23.61-14.2-1.39-6.48 27-3.39 1.08s-13.89-27-17.9-37.19c-4.01-10.18-21.14-41.51-21.14-41.51s-6.02-1.7-8.95-2.31c-2.93-.62-13.89-6.79-13.89-6.79l5.71-14.2s-16.05-10.49-21.29-12.96c-5.25-2.47-20.68-7.71-20.68-7.71l.77-3.39-15.58-.93-16.66-2.78-.15 7.25s-19.29 5.71-23.14 6.94c-3.86 1.23-17.74 9.87-17.74 9.87l2.62 11.11s-3.7 1.08-7.71 1.85-8.95 5.55-8.95 5.55-95.66 109.09-97.67 113.72-2.16 24.07-2.16 24.07 16.05 23.92 23.14 32.09c7.1 8.18 31.01 35.49 34.1 37.49 3.09 2.01 5.25-1.85 8.49-4.63s8.49-13.27 8.49-13.27Zm-20.29-58.21-5.32-1.66 5.44-2.39-3.59-1.62 27.08-32.17s-3.7 20.48-3.7 25c0 4.51 4.4 14.47 4.4 14.47l4.51 22.33.46.12-1.16.69-28.12-24.76Z" />
  <path class="cls-6"
    d="M1137.04 196.3s-14-37.34-40.12-27.16c-16.82 6.56-7.41 25.61-7.41 25.61s-17.79-4.25-26.54 4.94c-10.99 11.53-6.48 25.3-6.48 25.3s-19.93-9.56-35.49 3.39c-24.69 20.56-4.32 51.23-4.32 51.23s-31.36 20.95-16.05 43.82c13.08 19.53 37.65 1.23 37.65 1.23s1.01 9.24 10.8 13.89c10.65 5.05 20.06-2.47 20.06-2.47s-1.2 7.64 6.17 11.42c6.53 3.35 8.29 2.18 8.29 2.18l16.2-9.26 20.68-5.55s3.89 4.27 10.65 5.09c8.56 1.04 21.14-3.39 21.14-3.39l18.36 4.32 17.94 10.32s28.05 13.21 40.43-7.71c9.99-16.9-11.73-33.02-11.73-33.02s41.97-12.34 32.56-56.32c-6.65-31.07-50.45-21.14-50.45-21.14s15.1-24.58-.31-35.18c-14.35-9.87-26.54 3.09-26.54 3.09s1.49-19.31-13.27-20.68c-14.97-1.39-22.22 16.05-22.22 16.05" />
  <path class="cls-7"
    d="M1083.47 266.14s8.02-1.31 14.35-6.56 9.72-9.1 9.72-9.1 5.71 1.7 14.04-1.39 12.19-4.94 10.95-8.79c-1.23-3.86-9.1-2.31-11.57-1.85s-7.1 2.47-7.1 2.47.77-2.31.93-4.32c.15-2.01-.62-4.01-.62-4.01s7.25 1.39 12.65-1.39 11.26-14.04 11.26-14.04 2.62 6.02 6.33 9.1c3.7 3.09 11.11 5.55 11.11 5.55s-.08 1.12.27 2.85c.35 1.74 1.39 3.24 1.39 3.24s-3.59-1.16-4.4 2.08 5.32 5.55 10.3 6.6c4.98 1.04 10.88.12 10.88.12s3.01 11.11 3.24 17.24-1.97 20.83-1.04 24.42 3.24 5.9 2.89 9.03c-.35 3.12-7.17 12.15-8.56 15.62s-4.86 17.59-7.87 19.09-55.43-1.62-64.92-12.03-11.92-23.03-11.92-23.03-3.47.35-6.48-.81-11.8-9.26-14.58-17.94-1.39-20.71 2.78-20.37c4.17.35 15.74 16.2 15.74 16.2z" />
  <path class="cls-6" d="m1100.17 273.79.61-3.73-22.85-3.71 1.47 4.05z" />
  <path class="cls-29" d="M1084.85 288.74s-3.21-6.91-7.41-11.73c-4.17-4.78-10.03-5.4-10.03-5.4" />
  <path class="cls-29" d="M1079.15 286.58s-2.08-1.62-2.01-3.86 2.01-3.09 2.01-3.09" />
  <path class="cls-12"
    d="M1149.43 274.01s3.87 6.17 8.68 9.95c5.44 4.28 10.88 6.83 10.88 6.83s-6.13 4.28-17.36 3.24" />
  <path class="cls-6"
    d="M1098.86 275.34c0-11.96 9.73-21.7 21.7-21.7 11.96 0 21.7 9.73 21.7 21.7s-9.73 21.7-21.7 21.7c-11.96 0-21.7-9.73-21.7-21.7m3.7 0c0 9.92 8.07 17.99 17.99 17.99s17.99-8.07 17.99-17.99-8.07-17.99-17.99-17.99-17.99 8.07-17.99 17.99" />
  <path class="cls-11" d="M1161 302.36s-6.48 2.77-11.69 2.43c-7.06-.46-11.57-2.2-11.57-2.2" />
  <ellipse class="cls-2" cx="1122.8" cy="277.37" rx="3.65" ry="5.9"
    transform="rotate(-6.28 1122.395 277.32)" />
  <ellipse class="cls-2" cx="1163.65" cy="272.97" rx="3.65" ry="5.9" />
  <path class="cls-29" d="M1113.15 275.52s-1.06-.63-2.43-1c-1.43-.39-3.12-.46-3.12-.46" />
  <path class="cls-6"
    d="M1150.12 616.31s-21.29 15.74-23.14 21.29-12.03 124.98-8.33 176.82 12.27 166.18 14.12 172.66c1.27 4.43 3.62 9.51 4.97 12.28.5 1.02-.15 2.22-1.28 2.36l-64.18 1.25c-1.25.16-1.98-1.36-1.08-2.24 0 0 28.62-16.59 31.4-23.38 2.93-7.16-28.39-89.34-38.57-131.46s-19.44-94.43-19.44-94.43 12.15 6.71 26.04 9.26 31.24 2.43 31.24 2.43 3.59-26.73 3.93-34.48c.35-7.75 1.12-203.55 1.12-203.55s11.03 1.5 30.94.23c19.9-1.27 32.4-4.28 32.4-4.28s4.24 60.83 7.17 77.34 23.84 99.13 30.78 123.44c6.94 24.3 8.56 27.77 7.87 30.55s.08 2.47.08 2.47 19.36-1.31 28.85-3.86 13.42-4.86 13.42-4.86 13.58 75.68 22.84 124.75 23.76 96.28 28.39 103.07c3.61 5.3 25.65 18.12 35.15 23.49 1.18.67.71 2.46-.64 2.48l-59.06.55c-.83 0-1.43-.77-1.21-1.57 1.09-3.95 3.54-14.42 1.08-21.56-3.09-8.95-58-97.23-80.85-158.61-42.28-113.56-54-202.43-54-202.43Z" />
  <path class="cls-29" d="M1112.96 278.3s-1.23.04-2.59.46-2.88 1.29-2.88 1.29" />
  <path class="cls-8" d="m1176.634 266.94.375-4.615 15.658 1.273-.375 4.615z" />
  <path class="cls-11"
    d="M1173.96 247.39s2.62 10.18 2.85 16.32-1.97 20.83-1.04 24.42 3.05 4.4 2.89 9.03c-.1 3.14-5.13 9.95-7.71 16.43-3.26 8.17-5.71 16.78-8.72 18.28s-55.43-1.62-64.92-12.03-11.92-23.03-11.92-23.03-3.47.35-6.48-.81-11.8-9.26-14.58-17.94-1.39-20.71 2.78-20.37c4.17.35 15.74 16.2 15.74 16.2" />
  <path class="cls-8"
    d="M1152.2 267c0-11.84 9.63-21.47 21.47-21.47s21.47 9.63 21.47 21.47-9.63 21.47-21.47 21.47-21.47-9.63-21.47-21.47Zm4.63 0c0 9.28 7.55 16.84 16.84 16.84s16.84-7.55 16.84-16.84c0-9.28-7.55-16.84-16.84-16.84-9.28 0-16.84 7.55-16.84 16.84Z" />
  <path class="cls-6"
    d="M1176.5 368.2s-23.61-10.34-24.53-12.73c-.93-2.39-.69-10.18-.69-10.18s11.57 2.55 20.37 7.64c8.79 5.09 13.19 9.26 13.19 9.26l-8.33 6.02Zm-34.82-94.25s2.84-2.66 6.13-3.09c2.97-.38 6.46 1.21 6.5 1.23l1.58-3.35c-.18-.08-4.47-2.08-8.55-1.55-4.51.58-8.07 3.94-8.22 4.09zm47.62-10.16 2.24.16.01 3.72-2.46-.18z" />
  <path class="cls-6"
    d="M1166.78 363.69s-13.31 13.89-29.74 13.77-26.96-9.6-26.96-9.6 15.16-7.41 17.59-10.76-3.24-22.22-3.24-22.22l-3.24-.69s3.01 16.78 1.62 19.44-19.67 12.38-19.67 12.38 12.85 16.43 33.44 14.93c20.6-1.5 32.98-15.85 32.98-15.85l-2.78-1.39Z" />
  <path class="cls-6"
    d="M1121.88 342.74s2.31 8.79.93 10.88c-1.39 2.08-25 16.66-25 16.66s-9.95-8.79-6.71-13.66c3.24-4.86 30.78-13.89 30.78-13.89Z" />
  <path class="cls-6"
    d="M1001.69 500.86c2.16 2.16 9.57-3.39 9.57-3.39l-.31 8.02 4.63-.93 26.54 22.22-8.02 9.57 4.01 2.47 27.46-5.25 10.03.31-.15-4.01 3.39-7.71s-3.07 2.01-6.08 2.47c-3.76.58-5.5-1.08-5.5-1.08l-.81-20.91-1.56-3.7-3.53 5.55 2.04 18.13s-14.97-24.69-16.36-34.41c-.88-6.18 21.91-100.29 27.46-110.47s10.49-11.73 10.49-11.73 10.8 9.57 12.03 17.59 7.25 75.3 7.25 75.3l-4.17-83.01-3.7-7.1-16.05-13.89 1.23 9.57-13.27 3.7-18.52 22.22s2.89 1.93 4.05 6.6c.92 3.71-6.21 50.18-6.83 54.5s-31.78 38.57-31.78 38.57-10.49-3.39-11.73-1.54c-1.23 1.85 7.71 5.86 7.71 5.86s-11.73 4.32-9.57 6.48Zm14.97.19.77-4.94 24.46-29.47 1.08 1.08-4.4 20.6 8.18 31.48.46 6.17zm39.34 67.43s-6.17 2.16-9.26 8.02-3.24 17.44-3.24 17.44l-2.31 10.03-4.71 16.51-1.16 25.77s-5.25-.93-11.42 12.65-12.28 45.01-7.1 55.24c11.42 22.53 82.7 47.83 82.7 47.83s-34.25 1.85-66.66-15.43c-24.36-12.99-37.11-19.13-37.11-19.13s22.6-106.77 29.62-125.9c6.34-17.28 21.68-36.72 21.68-36.72l8.95 3.7Z" />
  <path class="cls-6"
    d="M1093.64 426.47c-.05 2.84-.22 11.23-.28 13.98-.01.49-.42.88-.91.86l-28.76-.87a.886.886 0 0 1-.86-.92l.55-13.97c.02-.49.43-.86.91-.85l28.5.87c.48.01.87.41.86.9Zm-9.94 168.08 3.7-16.66-5.86-1.24-4.09 17.59zm-30.17-5.78-2.47-13.04-4.32.77 2.16 11.26z" />
  <path class="cls-4"
    d="m1039.26 561.46-11.11-5.79s-8.64 19.13-5.01 22.53c3.63 3.39 16.12-16.74 16.12-16.74" />
  <path class="cls-6"
    d="m1184.07 373.76 26.23 18.28s3.78 14.89 6.25 32.17 1.47 72.36-.39 94.58c-1.85 22.22-7.41 36.41-7.41 36.41s13.58 7.41 24.69 22.84 25.92 42.59 25.92 42.59l-37.65-84.09.46-42.59s37.49 49.22 46.91 50.61c9.41 1.39 13.58-3.7 13.58-3.7s-1.7 2.01-10.34-3.55-46.29-69.74-46.29-69.74 1.23-12.96 0-35.18l-13.89-49.37-1.85-3.01-4.4-.69-16.9-8.1-4.94 2.55Z" />
  <path class="cls-4"
    d="m1274.48 431.31-6.09 23.45s-6.48 5.32-7.87 11.8-.69 14.58-3.01 14.58c-2.31 0-4.4-2.55-5.55-1.85s-.69 9.26-2.31 9.95-3.24-26.85-3.24-26.85l4.4-.69.69-5.09 3.47-1.16 3.47-25.23 16.05 1.08Zm26.08 26s15.02 26.67 6.17 33.87c-2.47 2.01-12.65-8.41-12.65-8.41z" />
  <path class="cls-11"
    d="M1120.03 328.63s3.93 22.91 2.78 25c-1.16 2.08-10.41 7.17-14.12 9.03-3.7 1.85-10.88 7.64-10.88 7.64m54.63-37.05s-2.55 20.14-.46 22.22c2.08 2.08 25.61 12.27 25.61 12.27" />
  <path class="cls-26"
    d="M1177.59 393.81s.99-13.15 4.47-17.9c3.39-4.63 6.48-5.71 6.48-5.71l6.33-13.27s-11-9.51-23.3-14.66c-13.27-5.55-19.13-6.33-19.13-6.33" />
  <path class="cls-26"
    d="M1194.87 356.94s-18.21 10.8-19.9 14.2-5.55 118.73-4.47 147.27c.78 20.67 3.39 56.55 8.02 84.63s35.8 138.56 36.72 142.57c.93 4.01.93 9.26.93 9.26s24.07-1.85 36.72-6.17 39.19-21.6 39.19-21.6-21.6-74.68-31.48-103.07c-9.87-28.39-37.8-83.94-38.88-87.48-1.08-3.55.46-42.12.46-42.59 0 0 10.91 12.32 21.76 25.46 9.44 11.43 18.44 23.81 25.15 25.15 6.94 1.39 11.57-3.09 11.57-3.09s4.47-1.08 7.41-5.09c2.89-3.96 7.64-37.88 11.26-41.51 2.62-2.62 6.33-4.17 6.33-4.17" />
  <path class="cls-12" d="M1157.84 346.91s7.94 1.95 16.66 6.79c3.91 2.17 10.09 7.66 10.09 7.66" />
  <path class="cls-26"
    d="m1120.5 334.87.46 1.16s-12.83 1.72-21.41 5.32c-11.84 4.98-20.25 11.8-20.25 11.8s16.66 12.73 19.52 20.06c2.85 7.33 6.87 111.86 7.33 136.4.46 24.53-.46 209.22-1.62 221.49s-3.47 31.94-3.47 31.94-15.04.93-35.87-3.7-69.43-31.94-69.43-31.94 24.07-111.55 29.62-125.9 20.83-37.72 20.83-37.72" />
  <path class="cls-12" d="M1118.95 343.51s-27.32 7.78-28.35 14.47c-.31 2.01.58 4.98.58 4.98" />
  <path class="cls-26"
    d="m1079.3 353.16 3.24 11.03s4.34 2.67 6.56 4.94c3.09 3.16 5.71 7.71 5.71 7.71m-12.27-12.65s-10.95.15-16.82 6.63c-7.65 8.45-93.35 107.54-96.43 112.48-3.09 4.94-3.39 25.3-3.39 25.3s12.34 19.13 23.14 32.09 33.94 37.34 33.94 37.34" />
  <path class="cls-26"
    d="M1048.29 535.92s2.01-8.18-1.08-9.72c-4.46-2.23-11.89 6.38-17.28 21.14-5.32 14.57-9.65 28.82-6.79 30.86 5.58 3.98 16.97-16.97 16.97-16.97" />
  <path class="cls-26"
    d="M1043.81 462.48s-7.71 11.57-14.04 18.98-14.04 14.97-14.04 14.97 4.01.93 3.7 1.85-5.25 1.08-4.94 2.16 5.25 1.23 5.25 2.31 29.01 25 29.01 25-.31-6.17-3.09-17.74-6.17-17.44-5.71-22.99 3.86-24.53 3.86-24.53Z" />
  <path class="cls-29"
    d="M1060.01 391.04s-4.94 16.05-6.48 23.76-4.94 31.17-4.94 31.17m27.01 87.94s-.31-3.86 1.08-7.25 2.78-6.02 2.78-6.02m-9.88 11.73s-3.39-6.63-2.93-12.96.62-21.29-2.01-20.37c-2.62.93-3.39 8.79-2.93 14.04s2.78 11.11 2.78 11.11m-.74 9.67s-2.22-1.12-2.93-2.78c-.68-1.56-.77-3.55-.77-3.55" />
  <path class="cls-26"
    d="M1035.38 535.36s2.03 2.95 3.76 2.84c1.74-.12 29.28-5.55 31.36-5.09s21.06 5.9 21.06 5.9-.93 2.55-4.17 3.01-13.66-1.85-15.85-1.62c-2.2.23-12.85 3.01-12.85 3.01l-.12 1.27s7.75-1.39 11.34-.93 23.14 4.98 23.14 4.98-2.55 7.75-5.21 8.45c-2.66.69-18.52-.23-21.06 0s-7.29 2.08-7.29 2.08 2.26 2.26 4.8 3.07 18.34 1.91 19.04 5.03c.15.67.23 1.74.23 1.74s-20.37 1.04-24.07 0-6.25-2.66-9.03-3.93-23.14-10.07-23.14-10.07 2.62-8.25 3.82-10.88c.97-2.13 4.22-8.85 4.22-8.85Z" />
  <path class="cls-29"
    d="M1089.48 592.7s-.62 18.36-2.47 19.6c-1.85 1.23-12.03-.31-24.84-2.78s-20.06-4.78-20.06-4.78" />
  <path class="cls-29"
    d="M1085.47 594.4s-2.01.77-5.71.31-33.64-7.87-35.18-6.94-1.08 6.17-1.08 6.17m-4.01 17.58s-2.01 8.33-2.93 15.74c-.93 7.41-.77 14.5-.77 14.5m2.78 6.33s1.23 2.47 2.93 3.86 27.77 9.26 27.77 9.26m18.82-43.98-4.93 3.09m4.47.31-4.94 3.08m4.25.35-3.65 2.14" />
  <path class="cls-29" d="m1076.64 593.97-1.62-15.39-8.33.81 1.38 12.5" />
  <path class="cls-26"
    d="M1189.62 370.05s2.47 2.39 9.03 5.17 9.26 3.39 9.26 3.39l2.93-.08s13.35 24.22 20.91 40.27c5.24 11.12 18.48 37.57 18.48 37.57l-.12 4.17s-.93.23-2.31 1.77.31 16.2.31 16.66m4.77-11.4s-2.93-8.79-2.31-10.18 1.39.93 2.78.31 6.02-27.16 6.02-27.16.93-1.23 8.02-.46c5.36.58 6.33 1.54 6.33 1.54" />
  <path class="cls-26"
    d="M1299.48 454.92s6.94 11.73 8.33 22.37c1.16 8.88-.31 12.96-2.16 13.42s-23.14-16.66-32.56-29.32c-12.71-17.09-13.73-30.86-13.73-30.86" />
  <path class="cls-29" d="M1210.6 392.89s4.01 12.34 5.4 26.85c1.39 14.5 2.78 48.14 2.78 48.14" />
  <path class="cls-7"
    d="M1599.67 538.35s17.67 94.38 28 137.62c12.1 50.66 27.59 108.39 33.52 132.72s44.5 146.56 44.5 146.56 8.9 1.19 23.14 0 19.58-3.56 19.58-3.56-35.6-192.25-51.03-284.22-33.82-217.17-33.82-217.17-41.26 8.61-77.76 9.6c-38.05 1.03-70.58 0-70.58 0s-13.65 24.23-5.93 154.17c7.71 129.95 30.26 338.21 30.26 338.21s8.31 4.02 23.73 3.49c15.43-.53 26.7-6.26 26.7-6.26s-1.78-8.7-3.56-32.44c-1.78-23.73-1.58-164.36-1.58-164.36s3.21-56.42 2.03-108.04c-1.19-51.62-1.04-101.21-1.04-101.21z" />
  <path class="cls-24"
    d="M1549.13 147.09c-5 20.62-2.07 67.74 1.1 83.37 3 14.83 14.92 16.91 35.1 15.72 20.17-1.19 31.87.03 35.6-6.72 5.14-9.3 4.86-27.49 4.86-27.49s24.28-5.64 19.83-22.3c-5.19-19.43-17.96-4.8-17.96-4.8s-.78-37.27-8.11-41.14c-8.47-4.47-23.43 1.95-38.37 1.78-17.01-.2-30.22-5.95-32.04 1.58Z" />
  <path d="M1545.63 206.03s-17.95-8.11-13-22.36c4.11-11.83 13.82-2.02 13.82-2.02"
    style="stroke-linecap:round;stroke:#000;stroke-miterlimit:10;fill:#fff;stroke-width:2.66px" />
  <path
    d="M1626.52 198.25s.79-4.94 4.35-8.01 7.12-1.88 7.12-1.88m-98.6-.13s2.89-.59 4.47.79 2.58 5.57 2.58 5.57"
    style="stroke-linecap:round;fill:none;stroke:#000;stroke-miterlimit:10;stroke-width:1.78px" />
  <path class="cls-28"
    d="M1568.52 206.94s-2.95-6 4.06-6.86 20.12 9.08 20.12 9.08m-22.17 6.04s.92 3.6 5.54 4.28c4.61.69 11.84-4.28 11.84-4.28m-11.64-4.49s5.08.39 7.82.04c3.35-.43 5.44-.72 5.44-.72m6.12-.87s1.8-.69 1.8-1.63m-22.3-15.44s-5.93-3.31-4.01-6.58c1.93-3.26 7.42 0 7.42 0" />
  <path class="cls-20" d="m1592.75 186.23 8.11 2.97m-36.57-2.97-6.52 3.04" />
  <path class="cls-6"
    d="M1590.43 155.62s-1.2 9.5 0 10.15 15.44-1.31 15.44-1.31.82-6.22-1.64-7.53-13.81-1.31-13.81-1.31Z" />
  <path
    style="stroke-linecap:round;fill:none;stroke-linejoin:round;stroke:#71bbcc;stroke-width:1.78px"
    d="M1587.9 165.13v-6.35" />
  <path class="cls-6"
    d="M1568.74 155.99s.95 8.41 0 8.89-14.76 0-14.76 0-.48-6.51 1.75-7.94c2.22-1.43 13.02-.95 13.02-.95Z" />
  <path class="cls-20" d="M1570.76 164.6v-6.28" />
  <ellipse class="cls-2" cx="1597.95" cy="177.84" rx="3.37" ry="5.17" />
  <ellipse class="cls-2" cx="1561.82" cy="177.34" rx="3.37" ry="5.17" />
  <path class="cls-6"
    d="M1645.38 463.06s-42.26 12.46-71.12 16.61-46.07 3.86-48.44 7.12-6.23 150.42 0 239.57 22.25 228.37 22.25 228.37l-7.92-3.24-24.72-257.91s-7.45-98.07-8.51-130.84c-1.13-35.01 5.74-92.96 5.74-92.96l48.06 1.63 84.65-8.36Zm-86.93-345.04s2.75-8.01 8.83-8.31 8.6 5.49 8.6 5.49 4.75-2.37 5.64-4.6 2.82 3.12 4.9 4.15c2.08 1.04 2.37 2.52 6.82 1.93s4.97-6.97 9.68-6.38 5.75 4.9 5.75 4.9 3.41-3.42 7.71-1.34 4.6 7.72 4.6 7.72 1.19.89 3.41-.89c2.23-1.78 2.97-1.04 2.97-1.04s2.52 4.3 2.37 7.57c-.15 3.26 4.01-1.93 6.23 1.48 2.23 3.41-2.82 6.97.89 9.05s8.16 2.97 8.9 6.68-3.71 9.35-3.71 9.35 5.19-.4 5.79 4.55c.59 4.94-4.9 8.36-4.45 11.03s3.41 0 3.41 0 4.75 3.71 2.23 7.05-4.15 7.29-4.15 7.29-1.95-6.09-8.95-5.53c-4.4.35-10.19 6.92-10.19 6.92s-.45-32.63-6.68-38.72c-6.23-6.08-19.43 1.48-38.86 1.04-20.03-.46-24.69-4.75-27.89-.89s-4.45 35.6-4.45 35.6l-6.08-5.19s-5.93-3.41-4.01-6.97c1.93-3.56 1.8-1.87 2.1-6.03.26-3.61-5.8-8.06-4.32-11.03s-.45-.74 2.67-.15 4.45-2.52 4.01-2.82-7.42-6.08-4.3-10.98 4.75-5.04 4.75-5.04-6.05-6.97-2.28-11.13c3.76-4.15 6.58-.45 7.18-3.12s-.89-3.86 1.63-3.56 9.26 1.93 9.26 1.93Z" />
  <path class="cls-20" d="m1618.76 186.59 5.34-4.93m-5.34 9.69 5.34-4.76m-4.3 8.45 4.3-3.69" />
  <path class="cls-24"
    d="M1623.99 265.02s-15.92-4.6-17.99-9.64c-2.08-5.04-3.08-14.24-3.08-14.24h-38.63s1.9 10.09 0 12.76-14.66 8.01-14.66 8.01 4.45 31.15 5.93 31.15 65.86-2.67 65.86-2.67z" />
  <path class="cls-6"
    d="M1614.53 532.93s1.19 64.23 16.61 130.69c15.43 66.46 32.87 155.56 32.87 155.56l-38.81-153.86-25.53-126.97zm-68.68-337.89s12.29 29.98 17.63 32.15c5.34 2.18 26.5 2.77 30.66 0 4.15-2.77 32.87-34 32.87-34s2.14 34.2-3.92 47.29c-4.32 9.33-17.1 8.11-36.66 9.29-19.56 1.19-29.87 1.55-37.78-4.98s-2.79-49.76-2.79-49.76Z" />
  <path class="cls-27"
    d="M1599.67 538.35s17.67 94.38 28 137.62c12.1 50.66 27.59 108.39 33.52 132.72s44.5 146.56 44.5 146.56 8.9 1.19 23.14 0 19.58-3.56 19.58-3.56-35.6-192.25-51.03-284.22-33.82-217.17-33.82-217.17-41.26 8.61-77.76 9.6c-38.05 1.03-70.58 0-70.58 0s-13.65 24.23-5.93 154.17c7.71 129.95 30.26 338.21 30.26 338.21s8.31 4.02 23.73 3.49c15.43-.53 26.7-6.26 26.7-6.26s-1.78-8.7-3.56-32.44c-1.78-23.73-1.58-164.36-1.58-164.36s3.21-56.42 2.03-108.04c-1.19-51.62-1.04-101.21-1.04-101.21z" />
  <path class="cls-16"
    d="M1547.85 260.21s15.91 16.12 38.9 13.74c22.99-2.37 32.93-12.76 32.93-12.76s60.37 21.95 63.04 25.51 30.85 83.66 30.85 83.66l-59.04 21.66s19.28 58.74 14.54 62.3c-4.75 3.56-40.35 11.27-82.33 15.13s-76.99 1.48-77.58-2.67 13.05-74.17 13.05-74.17-23.44-.89-36.79-3.86-24.62-8.01-24.03-10.09 29.67-88.11 32.34-91.08 54.11-27.39 54.11-27.39Z" />
  <path class="cls-24" d="m1574.26 547.31 41.83-16" />
  <path class="cls-7" d="M1560.43 955.82h12.06l1.38 21.28s-13.94-2.77-14.04-3.17.59-18.12.59-18.12Z" />
  <path class="cls-6" d="m1560.57 956.73 1.54 18.79-11.86-2.39-2.05-17.31z" />
  <path class="cls-7"
    d="m1723.7 955.69 14.35-.66 4.14 18.61s-15.87 1.98-15.97 1.58-2.52-19.54-2.52-19.54Z" />
  <path class="cls-6" d="m1724.59 955.9 6.59 22.79-11.86-2.4-7.53-20.79z" />
  <path class="cls-27"
    d="M1550.82 978.98c0-1.58-2.75-24.24-2.75-24.24s5.5 1.53 13.03 1.08 11.96-1.08 11.96-1.08v26.22zm171.68 7.12c-.4-1.19-11.47-30.45-11.47-30.45s6.27.59 13.05 0 13.48-1.41 13.48-1.41l6.3 26.72z" />
  <path class="cls-6"
    d="M1508.58 1005.88c-.53.38-.27 1.21.38 1.22 11.42.18 67.02 1.03 69.15.32 1.16-.39-1.62-7.91-2.77-15.46-1.01-6.6-.88-13.22-.81-15.17a.67.67 0 0 0-.55-.68l-25.41-4.91a.664.664 0 0 0-.72.34c-1.25 2.4-7.74 14.07-17.99 20.28-8.85 5.36-17.69 11.52-21.27 14.06Zm274.02-.71c.84.59.44 1.91-.59 1.93-13.62.21-65.91.99-67.97.3-1.16-.39 1.62-7.91 2.77-15.46.96-6.27.89-12.56.82-14.85-.01-.52.35-.97.86-1.07l24.81-4.79c.46-.09.91.12 1.13.53 1.53 2.86 7.92 14.01 17.86 20.03 8.13 4.92 16.26 10.53 20.3 13.38Z" />
  <path class="cls-24"
    d="M1691.47 375.58c.3 1.78 5.93 16.71 5.34 32.73s-4.15 25.81-4.15 25.81l-16.61 4.15-139.44-51.62 154.87-11.08Z" />
  <path class="cls-24"
    d="M1476.97 384.28s-6.65 36.79-5.04 40.65c.56 1.35 7.16 7.75 14.54 6.53 38-6.27 143.99-41.17 152.15-40.84 9.74.4 32.69 10.28 32.69 10.28s1.19-9.49-1.98-12.66c-3.16-3.16-10.28-12.66-16.22-12.66s-137.26 7.12-137.26 7.12l-38.86 1.58Z" />
  <path class="cls-6"
    d="M1478.1 385.22s-6.47 35.63-4.94 39.3c.54 1.29 6.96 6.81 13.99 5.65 17.88-2.95 47.54-11.4 77.44-20.09 30.67-8.92 61.36-18.05 61.36-18.05s-126.36 26.89-132.35 22.44c-4.54-3.37 6.41-29.76 6.41-29.76l-21.91.5Z" />
  <path class="cls-24"
    d="M1513.17 361.74c.89-.3 25.51 6.82 35.01 10.98 9.49 4.15 13.73 7.71 13.73 7.71s-46.06 2.27-46.36 3.86c-1.09 5.79-7.71 16.87-10.98 18.37-3.26 1.5-8.6 0-8.6 0s3.86-20.15 5.34-24.31 11.87-16.61 11.87-16.61Z" />
  <path d="m1500.66 380.54-3.81 11.06s-16.61-1.78-22.35-3.76-14.04-7.52-14.04-7.52l6.92-19.39"
    style="stroke-linecap:round;stroke-linejoin:round;stroke:#000;fill:#95cfdb;stroke-width:2.66px" />
  <path class="cls-24" d="m1679.01 406.93-7.71-6.03" />
  <path class="cls-16"
    d="M1656.77 376.6s3.15 1.51 6.12 5.37c.98 1.28 5.92 5.74 5.92 5.74s16.82-2.49 28.05-5.18 18.75-6.95 18.75-6.95l-4.05-10.98" />
  <path class="cls-28"
    d="M1549.99 378.71s-12.66 18.99-11.67 21.95 23.34-23.54 25.32-21.95-6.13 18.39-2.77 18.79 19.38-22.55 22.15-20.57-3.16 15.23 0 14.64 11.47-12.5 14.44-14.76" />
  <path class="cls-6"
    d="M1499.22 401.85s9.69-13.82 12.56-19.32 36-2.73 36-2.73-29.82 2.23-32.63 3.16c-.81.27-1.05 1.98-1.76 3.98-.72 2.05-1.91 4.41-3.49 7.22-1.73 3.08-5.58 7.66-5.83 7.69-3.09.39-4.85 0-4.85 0m139.34-9.84s-21.4 11.57-21.83 13.8c-.42 2.23 50.6 27.74 50.6 27.74l-76.99-28.33s28.28-8.44 32.78-9.64c3.86-1.03 7.99-2.23 10.87-2.86 2.93-.64 4.56-.7 4.56-.7Zm41.46-4.68s.67 3.41.45 7.49-2.55 9.65-2.55 9.65l-5.16-4.01s.3-2.97 0-6.3c-.3-3.34-1.45-5.41-1.45-5.41l8.72-1.41Zm-106.44-139.66s.45 6.53-1.48 9.49-13.97 8.99-13.97 8.99-2.44-1.42-3.88-2.46c-1.43-1.04-1.98-1.48-1.98-1.48s8.78-4.41 10.33-5.49c1.32-.91 3.56-1.51 3.9-6.32.35-4.81 7.07-2.73 7.07-2.73Z" />
  <path class="cls-7"
    d="M1098.52 1004.05c-.38 1.17 12.53 2.49 30.5 2.49 17.96 0 31.11-2.25 31.11-2.25l-3.12-15.95 17.9-29.48s8.63-.54 9.33-.88c.69-.33.85-4.57 1.63-6.74.77-2.18 6.92-8.64 7.15-9.49s-2.25-1.39-2.25-1.39 51.49-108.36 51.49-108.52-9.02-5.61-9.02-5.61 24.74-49.16 30.95-63.31c6.23-14.16 26.42-95.67 26.42-95.67l11.38 1.51s7.17 82.95 8.43 88.71c1.27 5.75 17.24 73.42 15.06 75.54s-12.76 1.77-14.94 4.73c-1.62 2.22 7.75 62.28 14.83 94.84.44 2.01-3.18.44-3.41 2.96-.43 4.44 2.19 12.99 2.64 15.03.68 3.1 9.27 5.24 9.27 5.24l6.23 31.89-4.2 14.94h58.97l-35.06-23.21s-.97-21.01 1.77-26.47c.84-1.68 6.19-.18 8.19-2.66 2.95-3.64 2.72-12.89 1.46-17.46-.94-3.42-4.47.94-4.36-.57 1.5-21.91.04-41.75.09-54.58.09-26.13 10.7-116.05 15.88-176.3s-17.34-117.94-17.34-117.94l10.69-11.11 47.21-27.89 13.17-16.17 7.15-1.88 1.21-6.43-27.86-36.77s-57.52-50.4-83.33-69.69c-5.93-4.44-17.61-6.29-18.08-6.58-2.58-1.52-.73-9.75-.73-9.75s5.31-6.34 10.68-12.78c5.36-6.43 12.44-18.21 12.44-18.21s5.65 2.63 12.61-8.77c6.96-11.41 3.89-25.18-.48-27.77-4.35-2.58-11.2 4.18-11.2 4.18s.04-6.13.08-9.76-1.63-10.58-1.63-10.58l-61.32-34.54-26.6 24.73-1.95 31.35s-16.02-2.11-18.12-.09-2.41 19.29.55 24.86c2.95 5.56 19.44 9.6 19.44 9.6s7.86 16.49 9.19 17.89c1.32 1.4 16.49 7.15 16.49 7.15s2.25 10.89 2.1 12.84c-.16 1.94-12.55 4.78-12.55 4.78l-87.24 83.17s-7.57 9.33-10.94 13.37c-3.38 4.05-11.45 19.45-11.52 19.61-.05.16-3.94 8.81-3.89 12.23s10.63 6.39 10.63 6.39l14.06 10.83 61.24 29.71-41.86 176.97-45.41 161.52s-3.41-.46-4.58-.23-6 18.12-6.07 19.13 5.98 4.97 5.98 4.97-6.96 27.39-9.02 30.26c-2.06 2.86-37.11 22.87-37.5 24.04Zm248.14-449.9 21.47-65.04 19.11 18.54 12.47 11.02-33.85 38.34-19.19-2.85Zm-105.01 12.56-9.31 2.16-35.02-36.35-4.67-2.22 17.11-13.81 24.27-27.69 12.6 67.05z" />
  <path class="cls-6"
    d="M1326.02 428.19s-13.9-8.71-14.73-13.48-.83-13.59-.83-13.59l4.47-3.94 1.13 10.31 17.69 6.02zm-74.8 139.33s-16.88 5.44-19.83 5.29c-2.96-.16-34.12-37.18-34.12-37.18l35.05 32.32zm-51.73-65.9s-1.04 9.65-4.77 15.25-13.28 12.84-13.28 12.84h9.44l22.19-17.61-13.59-10.47Z" />
  <path class="cls-5" d="m1393.95 497.36 13.85 18.67-8.1 1.46-15.4-12.19z" />
  <path class="cls-5"
    d="M1403.08 487.53s24.37 16 25.72 29.44c.53 5.26-2.93 9.46-9.44 16.33-7.36 7.78-48.12 36.71-50.61 40.06s-9.72 13.05-9.72 13.05l18.75-14.01 48.94-31.9 9.86-12.22 7.15-1.88 1.21-6.43-31.8-42.83z" />
  <path class="cls-6"
    d="M1313.68 668.76s-1.97 2.64-3.84 7.72-3.73 20.53-3.73 20.53l-4.56-29.04zm-38.07-7.22s-4.56 42.11-15.76 73.84c-11.2 31.74-37.34 90.02-36.92 92.1.41 2.07 4.36 7.05 3.53 10.79-.83 3.73-42.73 100.19-42.73 100.19s1.35.83 0 2.49-4.87 4.04-5.7 6.12c-.83 2.07-1.35 8.58-2.49 9.75s-9.44-1.24-9.44-1.24-16.59 28-17.01 31.84c-.41 3.84 2.7 8.92 1.66 10.99s-12.03 6.12-12.03 6.12l19.39-.73-2.8-14.31 19.08-30.39 8.5-.41s1.45-8.76 3.58-10.79c2.13-2.02 5.91-5.7 4.93-6.43s-2.33-2.39-2.23-2.54 52.18-103.84 51.8-105.89-8.71-7.34-7.57-8.66 31.04-62.04 37.6-82.77 19.61-75.44 19.61-75.44-4.01-.62-8.68-2.33-6.33-2.28-6.33-2.28Zm70.51-68.74s18.95 37.91 17.8 87.07-3.82 159.3-4.67 194.77c-.84 35.47 2.68 59.12 2.68 59.12s3.53-.89 3.73 2.46c.21 3.35 2.59 14.14 0 16s-13.69 3.75-13.69 3.75-1.24 25.91 0 29.23 24.48 14.73 24.48 16.18-6.84 2.39-6.84 2.39l28.21 1.36-1.76-4.68s-34.54-15.74-35.47-19.39c-.93-3.66 3.03-26.45 3.03-26.45s8.17-1.63 8.79-2.49 1.48-19.6.08-20.07-3.27-.16-3.27-.16-.44-52.58.18-63.16 8.4-84.94 8.4-84.94l7.99-100.03s-3.16-47.92-7.88-65.52c-4.72-17.61-11.72-32.8-11.72-32.8z" />
  <path class="cls-5"
    d="m1248.2 370.11-4.88 10.86c-.1.22.11.46.35.38l6.48-2.21c.13-.04.27 0 .33.13l3.73 6.43c.11.19.38.19.49 0l1.76-3.17c.04-.08.05-.17.01-.25l-5.5-12.16a.3.3 0 0 0-.26-.17h-2.26a.28.28 0 0 0-.26.17Z" />
  <path class="cls-9"
    d="M1338.26 317.47s1.71 13.22.15 21.88c-1.35 7.45 6.7 9.63 5.45 16.9-1.24 7.27-28 42.93-34.85 44.7-6.84 1.77-47.29-10.68-50.4-15.03-3.11-4.36-8.3-17.42-8.3-17.42s-17.53.52-20.85-12.86.73-19.81.73-19.81 6.99-2.89 13.33 2.02c5.29 4.1 5.55 8.87 5.55 8.87" />
  <path class="cls-9"
    d="M1339.38 366.19s11.52-2.34 14.86-17.89c3.33-15.55-4.91-18.65-4.91-18.65s-6.78 1.11-10.47 5.86" />
  <path class="cls-13" d="M1250.36 358.22s-1.4-5.13-6.53-9.65c-5.13-4.51-9.49-3.89-9.49-3.89" />
  <path class="cls-13" d="M1243.05 359.29c-.31-.6-2.02-1.53-2.18-5.11s1.48-5.29 1.48-5.29" />
  <ellipse class="cls-2" cx="1276.89" cy="339.25" rx="4.12" ry="6.38"
    transform="rotate(-2.04 1274.131 338.44)" />
  <ellipse class="cls-2" cx="1320.99" cy="337.52" rx="3.73" ry="6.38" />
  <path class="cls-13"
    d="M1303.72 347.96s6.84 3.58 9.65 4.2c2.8.62-9.65 6.07-9.65 6.07m-5.76-.78s.16-1.24-1.71-2.18c-1.87-.93-2.64 0-2.64 0" />
  <path class="cls-34"
    d="M1268.1 338.08s-1.23-.39-4.04-.56c-2.88-.17-4.51.56-4.51.56m8.55 4.74c-.62-.16-1.65-.16-3.27.02-1.17.13-2.9.94-3.27 1.05m74.52-7.4s-1.94-.97-4.12-.98c-2.45-.02-4.12.78-4.12.78m7.31 5.29s-.58-.76-3.19-1.24c-2.6-.48-4.12 0-4.12 0" />
  <path class="cls-6"
    d="M1282.72 311.87c.79.88 1.09 6.69 0 7.16s-5.34-.8-9.33 0c-6.22 1.24-8.87 4.04-9.57 2.18-.7-1.87 2.57-7.97 7.23-9.53 4.67-1.56 10.7-.89 11.67.19m31.77-1.66c-.79.88-1.09 6.69 0 7.16s5.34-.8 9.33 0c6.22 1.24 8.87 4.04 9.57 2.18.7-1.87-2.57-7.97-7.23-9.53-4.67-1.56-10.7-.89-11.67.19" />
  <path class="cls-13" d="M1349 339.59s-6.3.12-9.26 3.5l-.88 1" />
  <path class="cls-13" d="M1343.74 350.42c1.26-5.2-2.63-7.77-2.63-7.77" />
  <circle class="cls-2" cx="1248.27" cy="363.32" r="2.09" />
  <path class="cls-13"
    d="M1302.58 373.68s4.75-.74 2.94-4.1c-1.35-2.49-5.79-.99-11.91-3.16-8.79-3.13-15.3-10.65-18.62-8.19-6.9 5.09 8.44 15.04 8.44 15.04m-1.87-13.47-4.91 7.45m11.11-3.6-4.33 8.37" />
  <path class="cls-6"
    d="M1271.39 288.1c0-.29.41-.34.48-.06.95 3.65 3.44 11.45 8.46 18.54 5.37 7.58 15.17 17.75 17.86 20.5.18.18.49 0 .41-.24-.89-3.01-3.6-12.41-3.87-16.86-.23-3.84.12-5.5.33-6.12.06-.17.27-.22.4-.1 1.46 1.34 9.3 8.04 24.02 11.33 13.19 2.95 26.43 2.66 31.12 2.43.28-.01.32-.42.04-.49-2.42-.59-6.75-1.9-8.78-4.03-2.26-2.38-2.86-3.88-3.01-4.43-.04-.13.04-.25.17-.29 1.4-.4 9.24-2.81 14.31-7.33 4.16-3.71 6.73-5.9 7.76-6.78.18-.15.07-.44-.16-.43-2.13.03-8.7-.03-13.55-1.62-5.03-1.65-9.71-4.84-10.93-5.72-.15-.1-.13-.31.02-.41.82-.5 3.21-2.23 7.6-7.53 4.48-5.42 5.99-8.97 6.41-10.16.07-.19-.1-.36-.29-.31-1.22.32-5.18 1.04-13.3-.13-10.06-1.45-14.85-4.66-24.27-4.82-6.89-.12-11.81 1.65-13.96 2.62-.24.11-.46-.19-.28-.39 1.51-1.69 4.39-5.3 4.98-8.82.63-3.83-.35-7.97-.77-9.51-.06-.22-.36-.25-.46-.05-.87 1.75-3.74 6.99-7.71 8.59-4.79 1.93-10.94 2.04-16.42 4.9-7.16 3.73-9.65 8.05-9.88 9.16a.25.25 0 0 1-.29.19c-.9-.2-4.14-.86-5.51-.59-1.51.3-3.59 8.38-3.81 9.24-.01.06-.04.09-.08.13-.49.36-3.78 2.54-9.74.91-5.19-1.42-6.65-2.94-7.51-3.21a.236.236 0 0 0-.31.24c.03.97-.74 3.7 1.48 6.84 2.4 3.4 6.87 2.76 3.29 6.43-3.71 3.8-11.59 20.76-12.86 21.73-.14.11-.12.33.04.41 1.22.6 5.2 2.76 5.87 5.55.76 3.13-.36 14.95-.5 16.31 0 .08 9.13 14.97 12.16 16.37 3.19 1.48-.88-2.14-.65-10.47.12-4.12 2.24 1.39 4.15 2.41 1.92 1.02-5.75-6.9-3.03-20.61 2.71-13.71 3.67-11.43 3.67-11.43s5.91 3.59 6.23 5.72 1.28-2.53 1.6-9.44c.22-4.81.14-7.05.06-7.97-.02-.21.22-.34.39-.22 1.19.87 4.45 3.17 6.26 3.68 1.75.5 2.23-9.38 2.35-13.66Z" />
  <path class="cls-6"
    d="M1255.9 276.73c-.41-1.17-3.16-13.4-6.94-11.63-3.78 1.76-3.87 4.64-1.72 7.63s8.66 4 8.66 4" />
  <path class="cls-9"
    d="M1264.21 411.22s10.16-2.49 11.82-3.94-2.45-14.42-2.45-14.42m41.63 3.39s-1.01 9.57.86 11.23 12.03 2.7 12.03 2.7m91.26 107.03s-12.86-2.07-18.25 1.45l-14.31-12.03m-20.96 52.07 35.27-40.03" />
  <path class="cls-9"
    d="M1417.08 483.2s29.45 33.81 27.79 39.83-6.43 3.32-9.13 6.84c-2.7 3.53-8.92 11.82-16.39 16.8s-43.16 26.69-43.16 26.69m-184.47-43.66 20.17-16.35m17.78 53.36s-29.97-31.45-34.74-34.56-13.9-1.35-13.9-1.35" />
  <path class="cls-9"
    d="M1178.13 496.06s-10.16 11.41-16.59 21.78-6.43 13.9-7.88 16.39-4.77 7.26 4.36 10.37 12.45 8.92 23.02 14.93c10.58 6.02 42.28 21.35 42.28 21.35m141.74 1.69s24.84 46.03 16.44 138.75-14.62 130.68-14.62 163.03v47.91s-7.16 2.49-20.53 2.8c-13.38.31-20.85-1.87-20.85-1.87s-16.49-90.85-14.31-94.58 11.82-3.11 14.31-5.6-12.13-49.78-16.49-94.9c-4.36-45.11-7.47-68.14-7.47-68.14m-10.92-1.99s-7.74 41.26-22.68 82.33c-14.93 41.07-34.85 72.12-33.91 74.92.93 2.8 8.71 5.29 7.47 8.4s-51.96 106.72-51.96 106.72-9.65-.62-19.29-3.73c-9.65-3.11-20.53-8.71-20.53-8.71s34.85-118.48 50.4-183.82c14.39-60.43 37.62-155.75 37.62-155.75" />
  <path class="cls-33" d="M1303.2 603.09s2.9-.62 4.36-3.94c1.45-3.32.83-31.2.83-31.2" />
  <path class="cls-34" d="M1296.77 567.95s2.07 33.27 1.24 56.5-3.38 44.3-3.38 44.3" />
  <path class="cls-33" d="M1329.96 579.23s-14.52 1.69-28 1.68c-13.48-.02-30.6-.84-30.6-.84" />
  <circle class="cls-2" cx="1302.96" cy="574.36" r="2.9" />
  <path class="cls-9"
    d="M1366.88 932.27s3.11-1.66 4.15 0 1.45 17.01-1.24 18.05c-2.7 1.04-9.01 3.73-22.91 4.36-13.9.62-19.2-.41-21.06-1.87s-4.56-15.7-3.73-17.7 3.42-1.9 3.42-1.9m-135.98 7.15s2.7 0 2.7 1.45-4.56 5.39-6.43 8.5-1.04 6.43-2.9 7.26c-1.87.83-13.07.58-24.06-2.72s-18.88-9.52-18.88-10.56 3.73-16.8 5.39-17.63 4.36 1.24 4.36 1.24" />
  <path class="cls-9"
    d="M1332.66 954.85s6.02 29.48 6.22 31.76c.21 2.28-3.94 12.45-3.11 15.14.83 2.7 61.6 2.7 62.23 1.45.62-1.24-37.75-19.75-38.17-23.77-.41-4.02 1.3-26.47 1.3-26.47m-186.74 5.01s-17.63 27.81-18.05 30.92 3.32 12.81 3.11 15.12-59.74 1.87-59.95 0 34.43-18.43 37.44-24.24 9.26-30.47 9.26-30.47m83.47-382.59s1.4 2.2 2.67 2.16 21.47-3.3 22.98-2.91 15.19 4.83 15.19 4.83-.74 1.83-3.11 2.09-9.9-1.7-11.51-1.58c-1.61.11-9.43 1.87-9.43 1.87l-.07.53s6.2-.83 8.8-.4 16.17 4.62 16.17 4.62-2.24 6.3-4.19 6.74c-1.96.44-13.3-1.36-15.16-1.25s-5.36 1.33-5.36 1.33 1.59 1.7 3.42 2.36c1.83.65 12.94.71 13.37 3.01.09.49.5 2.41.5 2.41s-14.86.24-17.54-.61c-2.67-.85-4.49-2.1-6.48-3.1s-16.61-7.92-16.61-7.92m142.53-22.19-6.82-3.39" />
  <path
    d="M1407.02 469.92s-41.28-49.47-41.17-51.65c.1-2.18-11.79-3.83-17.84-5.33-6.95-1.72-19.91-4.67-19.91-4.67s-.73 28.44-26.55 27-38.58-25.99-38.58-25.99-35.75 16.15-39.66 19.57c-3.9 3.42-39.37 51.03-39.37 51.03l-2.9-1.87s-9.85 13.07-9.23 14.62c.62 1.56 23.54 13.9 33.55 20.02a1803 1803 0 0 0 17.96 10.84s5.82-13.04 4.85-14.95-2.53-1.91-2.53-1.91l6.53-12.13s.62 18.15 3.42 36.3 5.28 32.36 5.28 32.36 18.57 4.2 62.86 3.55c44.28-.64 54.6-4.69 54.6-4.69l10.43-67.83 2.49 4.98-1.24 3.73 6.2 9.75s12.88-3.73 26.88-16.59 16.28-16.18 16.28-16.18l-10.16-12.76-2.18 2.8Z"
    style="stroke-linecap:round;stroke-linejoin:round;stroke:#000;stroke-width:2.79px;fill:#71bbcc" />
  <path class="cls-9"
    d="M1347.49 564.71s-15.66 3.15-43.87 3.24c-28.21.08-60.36-3.65-60.36-3.65l-.8 3" />
  <path class="cls-9"
    d="M1356.72 563.16c-1.2.42-9.68 1.27-11.11 1.89s-15.78 6.19-15.78 6.19 1.01 1.7 3.4 1.58c2.38-.11 9.49-.86 11.1-1s9.64-1.94 9.64-1.94l.15.51s-5.57 3.03-8.07 3.85-15.95 4.16-15.95 4.16 3.18 5.88 5.18 6.02c2 .13 13.05-1.37 14.9-1.55s5.39-1.52 5.39-1.52-1.31 1.92-3.02 2.85-12.68 2.7-12.75 5.03c-.01.5-.12 2.46-.12 2.46s14.72-2.05 17.23-3.3 4.11-2.76 5.92-4.05 13.37-10.97 13.37-10.97m-55.68 92.01s-8.41 3.5-18.52 3.38-11.38-1.51-11.38-1.51" />
  <path class="cls-33"
    d="m1181.44 478.9 46.09 29.57m182.32-40.53s-13.26 15.05-20.1 20.87c-6.84 5.81-19.75 14.09-19.75 14.09" />
  <path class="cls-7"
    d="m1545.3 496.52-50.98-20.66-20.53-36.23-64.54 6.84-13.5 24.59-48.93 19.02-22.65 28.28-5.93 41.77 6.15 84.85s-31.42 110.72-20.35 138.85c4.85 12.32 30.92 25.17 42.51 31.55 40.43 22.25 100.16 16.61 100.16 16.61l1.6-43.3 31.37-2.5 4.57 47.16 53.83-11.82 35.14-12.86 7.32-13.68-1.68-48.44-8.42-67.93-15.1-74.99.95-58.17-3.42-32.24-7.59-16.71Z" />
  <path class="cls-6"
    d="M1468.4 477.28s.41-3.6-1.6-6.22-12.58 4.63-28.08-.81-19.33-11.61-19.33-11.61l23.14 4.56 28.69-4.84 3.81 12.69-6.63 6.22Z" />
  <path class="cls-6" d="m1472.38 456.35.61 10.43 6.07 7.1 1.02-12.79z" />
  <path d="M1418.48 478.3s12.08 7.05 27.98 7.45 28.57-14.69 28.57-14.69"
    style="stroke-linecap:round;fill:none;stroke-linejoin:round;stroke:#71bbcc;stroke-width:2.71px" />
  <path class="cls-21" d="M1471.86 456.6s-1.44 6.42.97 11.34c2.42 4.92 7.25 6.33 7.25 6.33" />
  <path class="cls-6"
    d="m1476.71 639.24-37.09 1.83 5.6 110.77s6.07-2.55 16.03-5.42 16.26-2.51 16.26-2.51l-.81-104.67Z" />
  <path class="cls-21" d="m1414.6 458.37-.9 4.84" />
  <path class="cls-6"
    d="M1525.94 488.68s-21.42 30.09-20.3 33.72c1.12 3.62 10.68 18.82 10.13 22.09-.56 3.27-38.75 135.76-38.75 135.76l1.86-23.69s8.07-43.92 11.78-58.58 17.06-53.45 17.06-53.45l-15.06-21.14 20.18-40.26 13.11 5.54Zm9.71 57.06s15.99 88.49 21.38 147.38c.22 2.36 2.43 2.61 3.28 7.83 2.55 15.63 5.4 43.59 5.84 48.51.47 5.37-3.43 7.65-3.43 7.65 2.34 24.66 4.34 31.72 0 38.25-5.63 8.45-68.4 35.8-68.4 35.8s78.88-14.05 84.4-27.95c4.61-11.59-.91-70.59-8-122.43-6.13-44.9-19.27-77.99-14.85-84.72 0 0 2.28-50.02-1.87-73.55-1.32-7.47-6.6-28.7-12.63-27.58-.4.07 1.42 8.64.39 18.1-1.59 14.73-6.11 32.72-6.11 32.72Z" />
  <path class="cls-21" d="M1555.36 603.64s6.81-82.77-9.25-104.5c-5.13-6.95-34.19-16.31-34.19-16.31" />
  <path class="cls-15" d="M1537.05 540.2s4.83-22.95 5.13-32.31-2.57-13.68-2.57-13.68" />
  <path class="cls-6"
    d="M1351 519.62s-.25 21.09-1.06 25.31c-.81 4.23-28.79 61.4-28.79 61.4l3.57 37.76 31.25-92.11.6-8.45-5.59-23.91Z" />
  <path class="cls-21"
    d="M1480.28 786.35s-6.84-.75-15.3 0c-8.45.75-16.66 2.35-16.66 2.35m-60.56-314.43s-38.23 13.69-40.95 15.8-21.74 22.65-23.85 32.31-5.13 35.03-3.32 73.07c1.81 38.05 5.31 52.25 5.31 52.25" />
  <path
    d="M1541.97 819.92s-17.79 61.38-25.08 100.44c-7.92 42.45-14.98 65.24-11.64 69.7 2.73 3.64 15.12 11.38 19.43 14.8.51.4.22 1.23-.43 1.23-7.25.03-41.15 1.19-46.29.74a.747.747 0 0 1-.66-.93l1.87-9.35s-1.64-96-.9-133.14c.69-34.72-8.97-125.19-8.95-129.84 0-.08 7.44 2.72 7.44 2.72l7.5 97.08s25.49-5.68 25.64-5.71l32.06-7.74Z"
    style="stroke-width:0;fill:#71bbcd" />
  <path class="cls-6"
    d="M1414.74 830.91s-3.5 51.99-4.4 89.41c-.84 35.2-1.6 70.82-1.04 74.49.38 2.48 1.24 8.89 1.7 10.7.18.7-.38 1.36-1.1 1.32l-37.83.35c-.39-.03-2-1.96-1.63-2.09 4.63-1.64 18.78-12.49 18.92-15.02.47-8.61-5.4-45.49-17.72-100.88-12.47-56.06-14.15-67.39-14.15-67.39l24.87 7.2 32.36 1.93Z" />
  <path class="cls-21"
    d="M1473.79 456.6s4.43.11 6.29 4.48c1.86 4.38-4.68 160.64-3.15 242.62s7.33 129.65 7.33 129.65 89.62-15.66 94.45-30.16c4.83-14.49 0-84.55-12.68-149.17s-23.55-101.46-23.55-101.46" />
  <path class="cls-6"
    d="M1445.49 761.32s-3.65 58.2-8.18 61.22-54.15 4.33-54.15 4.33l30.35 6.5 37.23 2.36-5.25-74.4Z" />
  <path class="cls-21"
    d="M1409.75 454.48s18.85 43.85 24.48 111.49 16.51 269.75 16.51 269.75-47.15 1.49-88.57-13.69c-23.35-8.56-56.29-27.68-58.68-42.07-9.96-60.09 52.24-226.17 52.24-226.17" />
  <path class="cls-30"
    d="M1481.89 452.63s26.97 18.64 29.79 25.77c2.82 7.14-20.73 40.15-19.02 44.98s14.19 18.22 13.99 21.79-9.54 28.27-16.83 52.69c-8.05 26.97-13.11 69.75-13.11 69.75" />
  <path d="M1357.08 543.23s-6.91-28.69-7.46-36.25c-1.12-15.4 0-18.31 0-18.31"
    style="stroke-linecap:round;stroke-linejoin:round;stroke:#000;stroke-width:1.81px;fill:#fff" />
  <path class="cls-6"
    d="m1413.25 667.63-6.8 23.11-6.31-.37 6.55-23.85zm-51.14-5.54c-.6-.2-10.27 0-10.27 0v14.92l8.07 3.77z" />
  <path class="cls-15"
    d="M1413.25 690.88s-.91 4.83-2.11 10.27c-1.21 5.44 1.66 9.96-1.89 10.87s-23.48-3.02-40.09-8.3-27.78-11.32-27.78-11.32v-21.14s15.4 9.66 32.91 14.8c17.51 5.13 38.95 4.83 38.95 4.83Zm-73.08 12.83s-3.62 42.73-1.81 46.05 9.96 9.96 28.08 16 36.84 9.96 38.35 8.76c1.51-1.21 1.66-10.87 1.66-10.87" />
  <path class="cls-6"
    d="m1518.7 678.73-4-23.18s-2.55 1.51-2.79 4.23-4.23-.3-3.14 3.32 3.14 17.15 3.14 17.15z" />
  <path class="cls-15"
    d="M1555.17 671.25s3.25 18.25 1.63 20.45c-1.63 2.2-7.97 3.41-19.74 5.82-11.78 2.42-32.01 6.19-32.01 6.19s-5.74-17.97-5.13-20.38c.6-2.42 27.23-4.83 34.45-6.04s15.07-2.76 15.07-2.76m-43.79 41.71c0 .91.91 43.18 3.02 46.2s3.25 4.23 3.25 4.23m50.8-8.15s-18.67 8.76-28.36 9.96c-9.69 1.21-15.12 0-15.12 0m-148.93-83.69c.26-1.57 1.84-9.42 1.84-9.42l-5.21-1.81-2.37 9.14m48.26 33.27-6.95 3.25m6.95 1.58-6.95 3.48m6.95 1.35-6.95 3.7" />
  <path class="cls-6"
    d="M1381.72 497.06s21.73 28.07 21.67 31.17c-.08 3.93-9.18 15.03-8.76 18.72.14 1.24 13.49 24.2 23.55 52.74 11.31 32.07 21.43 67.93 21.43 67.93s-6.17-35.92-16.33-68.29c-8.76-27.92-21.71-52.93-21.71-53.14 0-.45 11.32-18.12 11.32-18.12l-31.18-31.01Z" />
  <path class="cls-6"
    d="M1401.93 554.09h-33.47c-.36 0-.66.33-.66.73v15.77c0 .4.29.73.66.73h33.47c.36 0 .66-.33.66-.73v-15.77c0-.4-.29-.73-.66-.73" />
  <path class="cls-30"
    d="M1404.19 452.63s-27.33 35.03-27.4 38.35 36.16 33.87 35.56 37.92-10.27 15.52-9.96 18.54c.3 3.02 10.27 20.23 20.53 50.73 10.27 30.5 18.8 76.35 18.8 76.35m-52.71-287.89s-.77-9.66-5.27-9.58-14.86 13.48-9.2 26.44c4.77 10.94 8.53 12.72 8.53 12.72" />
  <path class="cls-30"
    d="M1510.58 411.62s15.82-45.94-33.81-71.78c-42.34-22.04-80.03 18-81.26 25.56-.84 5.13 1.34 10.58-1.23 15.05-2.57 4.48-10.46 7.88-11.15 23.37-.49 11.06 3.69 44.96 43.1 58.42s69.78-17.07 69.78-17.07" />
  <path class="cls-30"
    d="M1501.56 417.47s16.49-11.08 22.96-7.58 1.88 33.02-16.8 36.42c-10.4 1.89-18.03-2.94-18.03-2.94" />
  <path class="cls-15"
    d="M1520.13 418.05c-.6-.1-8.73 1.02-15.29 5.61s-10.74 8.65-10.32 9.79c.43 1.14 2.83 1.38 2.83 1.38" />
  <path class="cls-15"
    d="M1499.23 438.36c.22-.42 4.99-1.67 6.38-6.3 1.43-4.77-.77-8.39-.77-8.39m-122.98-39.98s2.23 1.18 2.77 4.12-.3 8.73-.3 8.73" />
  <path class="cls-15" d="M1381.05 402.11c-.67-.72-1.89-4.18-1.06-6.9s4.79-4.71 4.79-4.71" />
  <ellipse class="cls-2" cx="1463.68" cy="400" rx="6.14" ry="4.35"
    transform="rotate(-73.13 1463.605 400.03)" />
  <ellipse class="cls-2" cx="1412.9" cy="388.82" rx="6.13" ry="3.95"
    transform="rotate(-73.13 1412.834 388.852)" />
  <path class="cls-15"
    d="M1481.51 400c-.56-.3-7.6.7-7.6.7m4.91 4.91-5.56-.91m-67.29-20.17-4.21-3.11m2.86 6.76-2.86-1.35" />
  <path class="cls-30" d="M1438.84 395.64c-.53-.51-7.98-9.88-14.43-9.71s-1.38 16.91-1.38 16.91" />
  <path class="cls-15"
    d="M1441.17 403.12s4.1 2.39 6.06 5.37 2.76 6.81 2.76 6.81m-32.08-13.91s-3.42 1.26-4.72 2.7c-1.63 1.8-2.62 4.21-2.62 4.21m30.62 8.53-.18 9.95m-7.62-8.95-.48 10.48s-6.54-.37-11.48-2.64-6.71-4.71-6.71-4.71-5.84-4.09-3.62-8.44c1.95-3.81 4.54.09 10.45 2.12 7.92 2.72 25.69.28 27.13 5.06 2.51 8.35-15.19 8.71-15.19 8.71m-17.09-15.34-2.14 7.49m10.39-4.8-1.57 9.61" />
  <path class="cls-6"
    d="M1480.42 380.78c2.45-2.08.86-10.27-5.61-14.38s-19.33-4.11-18.19 4.99c.59 4.74 6.48 4.42 10.13 5.83s10.98 5.84 13.67 3.56" />
  <path class="cls-19" d="M1454 373.41s-.49-1.96-.29-3.84 1.17-4.38 1.17-4.38" />
  <path class="cls-6"
    d="M1404.45 365.69c-1.31-2.41 2.49-8.42 8.89-9.69 6.41-1.27 16.63 2.7 12.91 9.57-1.93 3.58-6.51 1.51-9.84 1.51s-10.52 1.25-11.96-1.39" />
  <path d="M1427.7 367.99s1-1.4 1.42-2.96.42-3.84.42-3.84"
    style="stroke-linecap:round;fill:none;stroke-linejoin:round;stroke:#71bbcc;stroke-width:1.54px" />
  <path class="cls-15" d="M1429.77 447.54s-6.85 2.48-12.39-.35c-6.4-3.27-5.91-6.27-5.91-6.27" />
  <path class="cls-6"
    d="M1517.32 387.13s-3.24-7.84-8.9-6.38c-10.7 2.77-5.96 13.74-5.96 13.74s-11.32.64-8.21 10.31c5.55 17.26 20.18 5.01 20.18 5.01s19.36 1.43 18.04-14.3c-1.03-12.37-15.15-8.38-15.15-8.38m-130.3-24.94c-.11-.4-7.71-1.61-9.71 5.35-2.19 7.61 2.04 10.26 2.04 10.26s2.31-2.02 4.45-1.7c5.66.85 5.72 8.84 5.72 8.84s4.2-3.39 4.56-7.62c.43-5.12-.66-6.3.09-11.66.31-2.2 3.61-7.05 3.64-7.22s-1.33-5-4.71-5.14c-7.95-.33-6.07 8.9-6.07 8.9Z" />
  <path class="cls-6"
    d="m1503.56 393.08 7.47-10.37c-1-1.41-24.03-39.41-62.62-44.6-21.94-2.95-30.18 2.13-30.76 2.82 0 0-5.55 2.65-8.76 5.49-4.4 3.89-7.79 8.16-7.79 8.16.4-.44 18.33-10.68 45.49-5.98 31.51 5.49 56.76 44.17 56.98 44.48Z" />
  <ellipse class="cls-7" cx="1447.16" cy="333.3" rx="22.43" ry="18.83"
    transform="rotate(-67.84 1447.224 333.277)" />
  <ellipse class="cls-19" cx="1446.66" cy="333.1" rx="16.79" ry="14.1"
    transform="rotate(-67.84 1446.725 333.071)" />
  <ellipse class="cls-19" cx="1445.93" cy="331.51" rx="4.74" ry="3.98"
    transform="rotate(-67.84 1445.996 331.49)" />
  <path
    d="M1456.54 406.77s3.21-.93 6.89-.83 6.58 1.47 6.58 1.47m-65.9-14.47s3.34-.17 6.9.76c3.57.94 6.07 2.93 6.07 2.93"
    style="stroke-linecap:round;fill:none;stroke-linejoin:round;stroke-width:1.81px;stroke:#fff" />
</svg>